<?xml version="1.0" encoding="utf-8"?>
<!-- Generator: Adobe Illustrator 23.0.4, SVG Export Plug-In . SVG Version: 6.00 Build 0)  -->
<svg version="1.1" xmlns="http://www.w3.org/2000/svg" xmlns:xlink="http://www.w3.org/1999/xlink" x="0px" y="0px"
	 viewBox="0 0 800 450" style="enable-background:new 0 0 800 450;" xml:space="preserve">
<style type="text/css">
	.st0{fill:#4A54A4;}
	.st1{fill:none;stroke:#C7AFD4;stroke-width:0.7557;stroke-miterlimit:10;}
	.st2{fill:#6467AF;}
	.st3{fill:none;stroke:#C7AFD4;stroke-width:0.8641;stroke-miterlimit:10;}
	.st4{fill:#7557A5;}
	.st5{fill:#213568;}
	.st6{fill:#FFFFFF;}
	.st7{fill:#C7AFD4;}
	.st8{opacity:0.4;fill:#6596A4;}
	.st9{fill:none;stroke:#7557A5;stroke-width:2.8043;stroke-linecap:round;stroke-miterlimit:10;}
	.st10{fill:none;stroke:#FFFFFF;stroke-width:1.8724;stroke-linecap:round;stroke-miterlimit:10;}
	.st11{fill:#171B44;}
	.st12{fill:none;stroke:#3E4398;stroke-width:1.7282;stroke-miterlimit:10;}
	.st13{fill:none;stroke:#3E4398;stroke-width:1.7282;stroke-linecap:round;stroke-miterlimit:10;}
	.st14{fill:#F69289;}
	.st15{fill:#F68929;}
	.st16{fill:#F9B2A7;}
	.st17{fill:#467389;}
	.st18{fill:#219888;}
	.st19{fill:#1C7F77;}
	.st20{fill:#36B39A;}
	.st21{fill:#FAA22F;}
	.st22{fill:#3A5B73;}
	.st23{fill:#F498B7;}
	.st24{fill:#F47A2E;}
	.st25{fill:#0093C7;}
	.st26{fill:#0877AB;}
	.st27{fill:#005D91;}
	.st28{fill:#F68B52;}
	.st29{fill:#F282A7;}
	.st30{fill:none;stroke:#2FB5E5;stroke-width:1.2962;stroke-linecap:round;stroke-miterlimit:10;}
	.st31{fill:none;stroke:#ACE1FA;stroke-width:1.2962;stroke-linecap:round;stroke-miterlimit:10;}
	.st32{fill:none;stroke:#FFFFFF;stroke-width:1.2962;stroke-linecap:round;stroke-miterlimit:10;}
	.st33{fill:#2FB5E5;}
	.st34{fill:#9FC867;}
	.st35{fill:#7BC360;}
	.st36{fill:#9D6645;}
	.st37{fill:none;stroke:#FFFFFF;stroke-width:1.2962;stroke-miterlimit:10;}
	.st38{fill:#58C1A4;}
	.st39{fill:#FDEAEA;}
	.st40{fill:#8F512E;}
	.st41{fill:#EB7732;}
	.st42{fill:none;stroke:#C7AFD4;stroke-width:2;stroke-miterlimit:10;}
	.st43{font-family:'Roboto-Regular';}
	.st44{font-size:32.0809px;}
</style>
<g id="background">
	<g>
		<rect x="-16.29" y="-16.93" class="st0" width="834.75" height="500"/>
		<g>
			<path class="st1" d="M296.74,314.59c-0.47,0-0.93,0.01-1.39,0.03c0.38-1.53,0.59-3.13,0.59-4.76c0-12.26-11.38-22.2-25.42-22.2
				c-13.85,0-25.1,9.67-25.41,21.7c-10.44,4.7-17.65,14.73-17.65,26.35c0,16.12,13.87,29.19,30.98,29.19
				c7.41,0,14.21-2.45,19.54-6.54c5.14,3.38,11.65,5.41,18.75,5.41c16.55,0,29.98-11.01,29.98-24.59S313.3,314.59,296.74,314.59z"/>
			<line class="st1" x1="277.96" y1="326.28" x2="277.96" y2="390.94"/>
			<polyline class="st1" points="248.19,335.97 277.96,350.48 302.44,336.78 			"/>
			<polyline class="st1" points="264.07,310.29 277.96,335.97 289.21,324.98 			"/>
		</g>
		<path class="st2" d="M291.47,184.18h-0.01c-1.48,0-2.45-1.47-1.97-2.87c0.43-1.25,0.57-2.64,0.33-4.09
			c-0.67-4.04-4.33-6.9-8.42-6.9H236.2c-4.11,0-7.8,2.89-8.44,6.95c-0.83,5.2,3.17,9.68,8.21,9.68h0.5c3.38,0,6,2.79,5.97,6.17
			c0,0.02,0,0.05,0,0.07l0,0c0,4.98,4.04,9.02,9.02,9.02h40.02c4.98,0,9.02-4.04,9.02-9.02l0,0
			C300.49,188.22,296.45,184.18,291.47,184.18z"/>
		<g>
			<path class="st3" d="M599.81,306.76c-1.18-1.19-3.77-1.19-6.66-0.68c-4.1,0.72-7.1-3.74-4.92-7.28c4.6-7.47,9.2-16.33,6.82-18.71
				c-2.21-2.21-10.9,0.57-16.7,2.79c-2.8,1.07-5.88-0.63-6.45-3.57c-1.76-9.04-5.58-25.47-10.01-25.47
				c-4.44,0-8.26,16.53-10.02,25.55c-0.57,2.91-3.6,4.62-6.38,3.6c-6.18-2.28-15.79-5.28-18.16-2.9
				c-2.38,2.38,2.22,11.24,6.82,18.71c2.18,3.54-0.83,8.01-4.92,7.28c-2.89-0.51-5.48-0.51-6.66,0.68
				c-4.92,4.92,2.38,20.2,16.3,34.13c2.42,2.42,4.88,4.64,7.32,6.62c1.23,1.01,1.88,2.57,1.72,4.15c-0.23,2.38,0.23,4.28,1.48,5.53
				c1.98,1.98,5.64,1.98,10.21,0.37c1.03-0.36,2.16-0.36,3.2,0c4.57,1.61,8.23,1.61,10.21-0.37c1.24-1.24,1.7-3.15,1.48-5.53
				c-0.15-1.58,0.49-3.15,1.72-4.15c2.44-1.99,4.9-4.21,7.32-6.62C597.43,326.96,604.73,311.68,599.81,306.76z"/>
			<line class="st3" x1="561.19" y1="279.27" x2="561.19" y2="392.25"/>
			<polyline class="st3" points="576.36,294.78 561.19,309.96 546.01,294.78 			"/>
			<polyline class="st3" points="576.36,323.25 561.19,338.43 546.01,323.25 			"/>
		</g>
		<path class="st2" d="M605.25,381.02c0-6.44-5.22-11.67-11.67-11.67h-145.4v23.33h145.4C600.03,392.68,605.25,387.46,605.25,381.02
			L605.25,381.02z"/>
		<path class="st3" d="M571.34,114.79c-0.05-3.29-2.88-5.87-6.18-5.87c-7.59,0-13.2,0-17.08-0.01c-3.32-0.01-6.17-2.47-6.53-5.77
			c-0.27-2.5-1.26-4.87-4.01-4.87h-34.91c-3.26,0-6.06,2.55-6.11,5.81c-0.05,3.3,2.61,6,5.9,6c0.32,0,0.86,0,1.49,0.01
			c0.44,0,0.89,0.05,1.32,0.18c2.65,0.81,4.01,3.52,3.23,6.04c-0.62,2.01-2.57,3.33-4.68,3.33c-3.13,0.01-6.6,0.02-6.57,0.02
			c-3.11,0-5.79,2.43-5.83,5.54c-0.05,3.15,2.49,5.72,5.63,5.72h59.7c3.97,0,6.31-3.47,5.76-6.66c-0.3-1.76,0.96-3.4,2.75-3.41
			c0.1,0,0.16,0,0.16,0C568.7,120.85,571.39,118.13,571.34,114.79z"/>
		<path class="st3" d="M593.7,120.49h-6.28c-2.88,0-5.21,2.33-5.21,5.21l0,0c0,2.88,2.33,5.21,5.21,5.21h6.28
			c2.88,0,5.21-2.33,5.21-5.21l0,0C598.91,122.82,596.58,120.49,593.7,120.49z"/>
		<path class="st3" d="M481.23,109.54h-7.17c-3.11,0-5.63-2.52-5.63-5.63l0,0c0-3.11,2.52-5.63,5.63-5.63h7.17
			c3.11,0,5.63,2.52,5.63,5.63l0,0C486.87,107.02,484.34,109.54,481.23,109.54z"/>
		<g>
			<path class="st3" d="M598.99,198.78v-5.87c0-3.49-2.83-6.32-6.32-6.32h-0.22c-2.69,0-5.04-1.72-5.96-4.24
				c-0.35-0.96-0.74-1.9-1.17-2.83c-1.12-2.44-0.68-5.32,1.22-7.22l0.15-0.15c2.47-2.47,2.47-6.47,0-8.93l-4.15-4.15
				c-2.47-2.47-6.47-2.47-8.93,0l-0.15,0.15c-1.9,1.9-4.78,2.34-7.22,1.22c-0.92-0.42-1.87-0.81-2.83-1.17
				c-2.52-0.93-4.24-3.28-4.24-5.96v-0.22c0-3.49-2.83-6.32-6.32-6.32h-5.87c-3.49,0-6.32,2.83-6.32,6.32v0.22
				c0,2.69-1.72,5.04-4.24,5.96c-0.96,0.35-1.9,0.74-2.83,1.17c-2.44,1.12-5.32,0.68-7.22-1.22l-0.15-0.15
				c-2.47-2.47-6.47-2.47-8.93,0l-4.15,4.15c-2.47,2.47-2.47,6.47,0,8.93l0.15,0.15c1.9,1.9,2.34,4.78,1.22,7.22
				c-0.43,0.92-0.81,1.87-1.17,2.83c-0.93,2.52-3.28,4.24-5.96,4.24h-0.22c-3.49,0-6.32,2.83-6.32,6.32v5.87
				c0,3.49,2.83,6.32,6.32,6.32h0.22c2.69,0,5.04,1.72,5.96,4.24c0.35,0.96,0.74,1.9,1.17,2.83c1.12,2.44,0.68,5.32-1.22,7.22
				l-0.15,0.15c-2.47,2.47-2.47,6.47,0,8.93l4.15,4.15c2.47,2.47,6.47,2.47,8.93,0l0.15-0.15c1.9-1.9,4.78-2.34,7.22-1.22
				c0.92,0.43,1.87,0.81,2.83,1.17c2.52,0.93,4.24,3.28,4.24,5.96v0.22c0,3.49,2.83,6.32,6.32,6.32h5.87c3.49,0,6.32-2.83,6.32-6.32
				v-0.22c0-2.69,1.72-5.04,4.24-5.96c0.96-0.35,1.9-0.74,2.83-1.17c2.44-1.12,5.32-0.68,7.22,1.22l0.15,0.15
				c2.47,2.47,6.47,2.47,8.93,0l4.15-4.15c2.47-2.47,2.47-6.47,0-8.93l-0.15-0.15c-1.9-1.9-2.34-4.78-1.22-7.22
				c0.42-0.92,0.81-1.87,1.17-2.83c0.93-2.52,3.28-4.24,5.96-4.24h0.22C596.16,205.1,598.99,202.27,598.99,198.78z"/>
			
				<ellipse transform="matrix(0.7071 -0.7071 0.7071 0.7071 22.5845 446.211)" class="st3" cx="549.92" cy="195.84" rx="25.52" ry="25.52"/>
		</g>
		<g>
			<path class="st1" d="M290.6,255.01v-2.77c0-1.65-1.33-2.98-2.98-2.98h-0.1c-1.27,0-2.38-0.81-2.81-2
				c-0.17-0.45-0.35-0.9-0.55-1.33c-0.53-1.15-0.32-2.51,0.58-3.41l0.07-0.07c1.16-1.16,1.16-3.05,0-4.21l-1.96-1.96
				c-1.16-1.16-3.05-1.16-4.21,0l-0.07,0.07c-0.9,0.9-2.25,1.11-3.4,0.58c-0.44-0.2-0.88-0.38-1.33-0.55c-1.19-0.44-2-1.55-2-2.81
				v-0.1c0-1.65-1.33-2.98-2.98-2.98h-2.77c-1.65,0-2.98,1.33-2.98,2.98v0.1c0,1.27-0.81,2.38-2,2.81c-0.45,0.17-0.9,0.35-1.33,0.55
				c-1.15,0.53-2.51,0.32-3.4-0.58l-0.07-0.07c-1.16-1.16-3.05-1.16-4.21,0l-1.96,1.96c-1.16,1.16-1.16,3.05,0,4.21l0.07,0.07
				c0.9,0.9,1.11,2.25,0.58,3.41c-0.2,0.44-0.38,0.88-0.55,1.33c-0.44,1.19-1.55,2-2.81,2h-0.1c-1.65,0-2.98,1.33-2.98,2.98v2.77
				c0,1.65,1.33,2.98,2.98,2.98h0.1c1.27,0,2.38,0.81,2.81,2c0.17,0.45,0.35,0.9,0.55,1.33c0.53,1.15,0.32,2.51-0.58,3.4l-0.07,0.07
				c-1.16,1.16-1.16,3.05,0,4.21l1.96,1.96c1.16,1.16,3.05,1.16,4.21,0l0.07-0.07c0.9-0.9,2.25-1.11,3.4-0.58
				c0.44,0.2,0.88,0.38,1.33,0.55c1.19,0.44,2,1.55,2,2.81v0.1c0,1.65,1.33,2.98,2.98,2.98h2.77c1.65,0,2.98-1.33,2.98-2.98v-0.1
				c0-1.27,0.81-2.38,2-2.81c0.45-0.17,0.9-0.35,1.33-0.55c1.15-0.53,2.51-0.32,3.4,0.58l0.07,0.07c1.16,1.16,3.05,1.16,4.21,0
				l1.96-1.96c1.16-1.16,1.16-3.05,0-4.21l-0.07-0.07c-0.9-0.9-1.11-2.25-0.58-3.4c0.2-0.44,0.38-0.88,0.55-1.33
				c0.44-1.19,1.55-2,2.81-2h0.1C289.27,257.99,290.6,256.65,290.6,255.01z"/>
			<circle class="st1" cx="267.45" cy="253.62" r="12.04"/>
		</g>
		<g>
			<path class="st1" d="M251.52,233.33l0.26-1.93c0.15-1.14-0.65-2.19-1.8-2.35l-0.07-0.01c-0.88-0.12-1.58-0.78-1.77-1.65
				c-0.07-0.33-0.16-0.66-0.26-0.98c-0.26-0.85,0.01-1.77,0.71-2.31l0.06-0.04c0.92-0.7,1.09-2.01,0.39-2.93l-1.18-1.54
				c-0.7-0.92-2.01-1.09-2.93-0.39l-0.06,0.04c-0.71,0.54-1.67,0.56-2.42,0.09c-0.28-0.18-0.58-0.35-0.88-0.51
				c-0.79-0.41-1.25-1.26-1.13-2.14l0.01-0.07c0.15-1.14-0.65-2.19-1.8-2.35l-1.93-0.26c-1.14-0.15-2.19,0.65-2.35,1.8l-0.01,0.07
				c-0.12,0.88-0.78,1.58-1.65,1.77c-0.33,0.07-0.66,0.16-0.98,0.26c-0.85,0.26-1.77-0.01-2.31-0.71l-0.04-0.06
				c-0.7-0.92-2.01-1.09-2.93-0.39l-1.54,1.18c-0.92,0.7-1.09,2.01-0.39,2.93l0.04,0.06c0.54,0.71,0.56,1.67,0.09,2.42
				c-0.18,0.28-0.35,0.58-0.51,0.88c-0.41,0.79-1.26,1.25-2.14,1.13l-0.07-0.01c-1.14-0.15-2.19,0.65-2.35,1.8l-0.26,1.93
				c-0.15,1.14,0.65,2.19,1.8,2.35l0.07,0.01c0.88,0.12,1.58,0.78,1.77,1.65c0.07,0.33,0.16,0.66,0.26,0.98
				c0.26,0.85-0.01,1.77-0.71,2.31l-0.06,0.04c-0.92,0.7-1.09,2.01-0.39,2.93l1.18,1.54c0.7,0.92,2.01,1.09,2.93,0.39l0.06-0.04
				c0.71-0.54,1.67-0.56,2.42-0.09c0.28,0.18,0.58,0.35,0.88,0.51c0.79,0.41,1.25,1.26,1.13,2.14l-0.01,0.07
				c-0.15,1.14,0.65,2.19,1.8,2.35l1.93,0.26c1.14,0.15,2.19-0.65,2.35-1.8l0.01-0.07c0.12-0.88,0.78-1.58,1.65-1.77
				c0.33-0.07,0.66-0.16,0.98-0.26c0.85-0.26,1.77,0.01,2.31,0.71l0.04,0.06c0.7,0.92,2.01,1.09,2.93,0.39l1.54-1.18
				c0.92-0.7,1.09-2.01,0.39-2.93l-0.04-0.06c-0.54-0.71-0.56-1.67-0.09-2.42c0.18-0.28,0.35-0.58,0.51-0.88
				c0.41-0.79,1.26-1.25,2.14-1.13l0.07,0.01C250.31,235.28,251.36,234.47,251.52,233.33z"/>
			
				<ellipse transform="matrix(0.1921 -0.9814 0.9814 0.1921 -35.6307 417.1852)" class="st1" cx="235.55" cy="230.23" rx="8.44" ry="8.44"/>
		</g>
		<path class="st2" d="M611.58,392.68h-23.04c-3.5,0-6.34-2.84-6.34-6.34l0,0c0-3.5,2.84-6.34,6.34-6.34h23.04
			c3.5,0,6.34,2.84,6.34,6.34l0,0C617.92,389.85,615.08,392.68,611.58,392.68z"/>
		<g>
			<path class="st4" d="M552.25,347.46c0,6.2-5.03,11.23-11.23,11.23H286.1c-6.2,0-11.23-5.03-11.23-11.23V170.32
				c0-6.2,5.03-11.23,11.23-11.23h254.91c6.2,0,11.23,5.03,11.23,11.23V347.46z"/>
			<g>
				<path class="st5" d="M541.02,170.32v177.14H286.1V170.32H541.02 M541.02,159.09H286.1c-6.2,0-11.23,5.03-11.23,11.23v177.14
					c0,6.2,5.03,11.23,11.23,11.23h254.91c6.2,0,11.23-5.03,11.23-11.23V170.32C552.25,164.12,547.22,159.09,541.02,159.09
					L541.02,159.09z"/>
			</g>
			<g>
				<path class="st6" d="M512.5,334.65c0,4.22-3.42,7.63-7.63,7.63H321.39c-4.22,0-7.63-3.42-7.63-7.63V190.91
					c0-4.22,3.42-7.63,7.63-7.63h183.48c4.22,0,7.63,3.42,7.63,7.63V334.65z"/>
			</g>
			<g>
				<path class="st7" d="M504.87,183.28H321.39c-4.22,0-7.63,3.42-7.63,7.63v13.97H512.5v-13.97
					C512.5,186.7,509.08,183.28,504.87,183.28z"/>
			</g>
			<path class="st8" d="M384.44,344.95l-64.98-18.76c-1.97-0.57-3.11-2.63-2.54-4.6l28.62-99.13c0.57-1.97,2.63-3.11,4.6-2.54
				l64.98,18.76c1.97,0.57,3.11,2.63,2.54,4.6l-28.62,99.13C388.47,344.38,386.41,345.51,384.44,344.95z"/>
			<path class="st2" d="M382.26,340.85l-64.98-18.76c-1.97-0.57-3.11-2.63-2.54-4.6l28.62-99.13c0.57-1.97,2.63-3.11,4.6-2.54
				l64.98,18.76c1.97,0.57,3.11,2.63,2.54,4.6l-28.62,99.13C386.29,340.28,384.23,341.41,382.26,340.85z"/>
			<g>
				<path class="st7" d="M401.77,223.9v108.88h-73.33V223.9H401.77 M402.63,223.03h-75.05v110.61h75.05V223.03L402.63,223.03z"/>
			</g>
			<g>
				<line class="st9" x1="486.87" y1="189.62" x2="499.25" y2="189.62"/>
				<line class="st9" x1="486.87" y1="194.53" x2="499.25" y2="194.53"/>
				<line class="st9" x1="486.87" y1="199.43" x2="499.25" y2="199.43"/>
			</g>
			<path class="st4" d="M468.71,199.43h-84.08c-2.71,0-4.91-2.2-4.91-4.91l0,0c0-2.71,2.2-4.91,4.91-4.91h84.08
				c2.71,0,4.91,2.2,4.91,4.91l0,0C473.62,197.24,471.42,199.43,468.71,199.43z"/>
			<g>
				<line class="st10" x1="325.84" y1="191.84" x2="321.35" y2="196.33"/>
				<line class="st10" x1="325.84" y1="196.33" x2="321.35" y2="191.84"/>
			</g>
			<path class="st10" d="M344.94,196.33L344.94,196.33c-1.24,0-2.24-1-2.24-2.24l0,0c0-1.24,1-2.24,2.24-2.24l0,0
				c1.24,0,2.24,1,2.24,2.24l0,0C347.18,195.32,346.18,196.33,344.94,196.33z"/>
			<line class="st10" x1="331.57" y1="194.08" x2="336.38" y2="194.08"/>
			<rect x="370.24" y="358.7" class="st11" width="93.67" height="21.31"/>
			<path class="st5" d="M493.06,392.68H339.75l0,0c0-7,5.67-12.67,12.67-12.67h127.96C487.38,380.01,493.06,385.69,493.06,392.68
				L493.06,392.68z"/>
			<path class="st3" d="M476.1,278.84h-54.74c-2.76,0-5-2.24-5-5l0,0c0-2.76,2.24-5,5-5h54.74c2.76,0,5,2.24,5,5l0,0
				C481.1,276.6,478.86,278.84,476.1,278.84z"/>
			<path class="st3" d="M476.1,296.98h-54.74c-2.76,0-5-2.24-5-5l0,0c0-2.76,2.24-5,5-5h54.74c2.76,0,5,2.24,5,5l0,0
				C481.1,294.74,478.86,296.98,476.1,296.98z"/>
			<path class="st3" d="M493.02,278.84L493.02,278.84c-2.76,0-5-2.24-5-5l0,0c0-2.76,2.24-5,5-5h0c2.76,0,5,2.24,5,5l0,0
				C498.03,276.6,495.78,278.84,493.02,278.84z"/>
			<path class="st3" d="M493.02,296.98L493.02,296.98c-2.76,0-5-2.24-5-5l0,0c0-2.76,2.24-5,5-5h0c2.76,0,5,2.24,5,5l0,0
				C498.03,294.74,495.78,296.98,493.02,296.98z"/>
			<path class="st3" d="M481.1,310.99c0,2.76-2.24,5-5,5h-54.74c-2.76,0-5-2.24-5-5l0,0c0-2.76,2.24-5,5-5h54.74
				C478.86,305.99,481.1,308.23,481.1,310.99L481.1,310.99z"/>
			<path class="st3" d="M481.1,329.14c0,2.76-2.24,5-5,5h-54.74c-2.76,0-5-2.24-5-5l0,0c0-2.76,2.24-5,5-5h54.74
				C478.86,324.13,481.1,326.37,481.1,329.14L481.1,329.14z"/>
			<path class="st3" d="M493.02,315.99L493.02,315.99c-2.76,0-5-2.24-5-5l0,0c0-2.76,2.24-5,5-5h0c2.76,0,5,2.24,5,5l0,0
				C498.03,313.75,495.78,315.99,493.02,315.99z"/>
			<path class="st3" d="M498.03,329.14c0,2.76-2.24,5-5,5h0c-2.76,0-5-2.24-5-5l0,0c0-2.76,2.24-5,5-5h0
				C495.78,324.13,498.03,326.37,498.03,329.14L498.03,329.14z"/>
			<line class="st12" x1="506.16" y1="408.21" x2="572.99" y2="408.21"/>
			<line class="st13" x1="358.74" y1="392.75" x2="220.43" y2="392.75"/>
			<g>
				<path class="st14" d="M312.88,316.91c1.21,2.9,3.88,7.47,7.12,10.08c3.6,2.94,7.29,2.5,11.07,0.02c0.39-0.26,0.83-0.13,1.05,0.2
					c0.2,0.3,0.15,0.7-0.11,0.95c-8.58,8.25-18.52,1.04-23.84-9.07c-1.6-3.03,2.99-5.46,4.59-2.42c0.04,0.07,0.07,0.14,0.1,0.2
					L312.88,316.91z"/>
				<path class="st15" d="M315.92,322.41c0-0.01-0.01-0.01-0.01-0.02c-2.02-2.96-2.62-4.73-3.14-5.73
					c-0.67-1.27-2.24-1.76-3.51-1.09c-1.27,0.67-1.76,2.24-1.09,3.51c1.1,2.09,2.21,3.67,3.41,5.16
					C311.96,323.83,315,322.74,315.92,322.41z"/>
				<path class="st16" d="M311.84,334.83c1.03,0,1.88-0.82,1.91-1.86c0.03-1.22,0.12-2.48,0.01-3.78
					c-0.37-4.48-0.75-9.06-0.97-11.69c-0.1-1.27-1.16-2.24-2.44-2.24h-8.28c-1.37,0-2.49,1.09-2.53,2.46
					c-0.1,3.32-0.31,9.47-0.67,15.04c0,0.01,0,0.01,0,0.02c-0.07,1.12,0.79,2.07,1.91,2.07L311.84,334.83z"/>
				<path class="st14" d="M309.28,389.9c-0.9-1.02-1.12-3.3-1.11-5.37c0-1.22-1.56-1.75-2.31-0.78h0l-0.02,6.47
					C307.08,390.55,308.5,390.55,309.28,389.9z"/>
				<path class="st17" d="M309.12,389.81c-0.01,0-0.02-0.01-0.03-0.02c-0.53,0.2-1.13,0.32-1.81,0.32c-0.58,0-1.1-0.08-1.58-0.23
					l-0.27,1.49c-0.08,0.43,0.24,0.83,0.68,0.85c2.1,0.06,7.47,0.21,7.62-0.03C314.4,391.1,311.35,390.68,309.12,389.81z"/>
				<path class="st18" d="M305.46,363.85c-0.27,1.96-0.32,14.53,0.12,20.91l2.71,0.03c1.35-6.19,2.61-18.22,2.88-20.14
					c0-0.02,0-0.05,0.01-0.07c1.51-6.66,2.25-19.64,2.19-22.27c-0.08-3.56-2.39-6.4-5.16-6.34c-2.77,0.06-4.95,3-4.87,6.57
					C303.4,344.78,305.59,362.92,305.46,363.85z"/>
				<path class="st19" d="M313.37,342.31c-0.08-3.56-2.39-6.4-5.16-6.34c-2.77,0.06-4.95,3-4.87,6.57
					c0.04,1.62,1.2,11.62,1.79,17.34c0.56-1.3,1.16-2.6,1.73-3.91c0.25-4.55,2.83-8.62,6.46-11.28
					C313.37,343.62,313.38,342.79,313.37,342.31z"/>
				<path class="st16" d="M293.38,388.92c-0.2-1.93,0.68-4.11,1.46-6.17l0,0c-0.48-1.06-1.98-1.05-2.45,0.02l-1.68,3.82
					c-0.05,0.12-0.06,0.27,0,0.4C291.26,388.19,292.59,388.83,293.38,388.92z"/>
				<path class="st17" d="M294.86,390.24c-0.65-0.32-1.14-0.87-1.41-1.53c-1.28-0.41-2.17-1.32-2.67-2.41
					c-0.26,0.21-0.53,0.46-0.7,0.7c-0.23,0.34-0.55,0.78-0.77,1.1c-0.16,0.22-0.13,0.52,0.06,0.71l1.01,0.99
					c0.19,0.19,2.09,1.83,2.59,1.9c1.26,0.17,3.6,0.44,3.68,0.14C296.78,391.31,295.78,390.69,294.86,390.24z"/>
				<path class="st20" d="M298.34,362.25c-0.68,1.54-4.85,14.55-6.32,20.9c0.65,0.59,1.46,1.05,2.4,0.99
					c2.57-5.03,8.69-15.96,9.83-18.45c2.08-3.1,4.35-20.78,4.28-24.08c-0.08-3.56-2.39-6.4-5.16-6.34
					c-2.77,0.06-5.45,2.94-5.37,6.51C298.06,344.08,298.8,361.21,298.34,362.25z"/>
				<path class="st21" d="M310.42,315.27h-1.34c-0.47,1.08-1.46,1.92-2.99,1.92c-1.54,0-2.53-0.84-3-1.92h-1.23
					c-1.25,0-2.28,0.99-2.32,2.25c-0.09,3.27-0.24,7.5-0.61,13.19c-0.34,5.15-1.51,6.76-0.85,13.4c0,0,11.21,1.07,15.27-0.97
					c0.61-4.68,0.78-9.4,0.4-13.95c-0.38-4.53-0.76-9.14-0.97-11.76C312.68,316.21,311.66,315.27,310.42,315.27z"/>
				<path class="st14" d="M333.53,326.05c0,0-2.17-0.2-2.45,0.44c-0.28,0.64-0.35,1.12,0.56,1.57c0.92,0.44,2.39,0.62,3.29,0.54
					c0.9-0.07,2.36-0.83,2.46-1.02c0.37-0.67-1.25-0.37-2.04-0.26c-0.79,0.11-1.7,0.15-1.64-0.24c0.06-0.4,1.59-0.49,1.8-0.92
					C335.73,325.73,333.53,326.05,333.53,326.05z"/>
				<path class="st16" d="M303.86,317.96c3.6,8.08,21.22,7.54,26.5,7.62l0.04,0c0.41,0.01,0.74,0.34,0.73,0.75
					c-0.01,0.93-1.1,0.82-4.67,1.51c-24.67,4.84-31.68-11.52-25.7-12.22C302.6,315.41,303.86,317.96,303.86,317.96z"/>
				<g>
					<path class="st15" d="M306.61,320.93c-2.38-1.68-2.8-3.38-2.81-3.42l0.01,0.08l-0.18-0.42c-0.62-1.42-2.24-2.16-3.68-1.59
						c-0.02,0.01-0.04,0.02-0.06,0.03c-1.73,0.72-1.38,2.76-1.38,2.76c0.04,0.28,0.62,3.65,4.59,6.62
						C303.09,324.98,306.93,321.15,306.61,320.93z"/>
				</g>
				<path class="st22" d="M304.79,311.49h-0.16c-1.21,0-2.19-0.98-2.19-2.19v-3.24h2.35V311.49z"/>
				<g>
					<polygon class="st16" points="307.78,315.27 303.45,315.27 304.7,310.96 307.65,311.33 					"/>
				</g>
				<path class="st14" d="M307.65,311.33l-2.95-0.36l-0.58,2.01c0.66,0.74,1.64,1.9,2.71,1.9c0.34,0,0.65-0.1,0.93-0.27
					L307.65,311.33z"/>
				<path class="st16" d="M306.8,313.33L306.8,313.33c-1.99,0-3.6-1.61-3.6-3.6v-4.01h6.18c0,0,0,3.13-0.45,5.25
					C308.59,312.55,307.82,313.33,306.8,313.33z"/>
				<path class="st16" d="M304.25,308.97c0,0.78-0.37,1.42-0.84,1.42c-0.46,0-0.97-1.03-0.97-1.81s0.51-1.03,0.97-1.03
					C303.87,307.55,304.25,308.19,304.25,308.97z"/>
				<path class="st22" d="M310.01,303.71c0,0-1.38,0.37-3.22,0.22l-2.09,0c-1.25,0-2.27,1.02-2.27,2.27v0.49l0.67,0.87l0.65,1.02
					h0.08c0.4,0,0.72-0.31,0.75-0.7c0.04-0.65,0.49-1.19,1.13-1.19h1.85c1.13,0,1.71,0.6,1.71,1.45l-0.06,0.71
					C309.23,308.85,310.91,307.45,310.01,303.71z"/>
				<path class="st16" d="M332.07,325.68c0,0-2.11-0.54-2.49,0.04c-0.38,0.59-0.53,1.05,0.31,1.64c0.84,0.58,2.26,0.99,3.16,1.06
					c0.9,0.07,2.46-0.45,2.6-0.62c0.48-0.6-1.17-0.56-1.97-0.58s-1.7-0.12-1.58-0.5c0.12-0.38,1.65-0.23,1.92-0.63
					C334.3,325.7,332.07,325.68,332.07,325.68z"/>
			</g>
			<g>
				<path class="st14" d="M414.56,298.51c-2.14,1.14-4.61,0.43-6.04-1.54c-3.03-3.91-3.61-13.63-3.84-18.55
					c-0.04-0.91,1.29-1.07,1.47-0.18c0.59,2.9,1.11,5.42,1.75,7.82c0.57,2.1,2.81,9.76,4.65,8.63c2.27-1.48,4.64-8.25,4.27-7.25
					c0.49-1.35,1.98-2.04,3.33-1.55c1.35,0.49,2.04,1.98,1.55,3.33C421.33,290.21,418.34,296.66,414.56,298.51z"/>
				<path class="st23" d="M413.83,292.84c0.59-0.87,1.14-1.78,1.65-2.71c0.5-0.91,1.02-1.92,1.38-2.78l0.02-0.04
					c0.03-0.07,0.06-0.14,0.1-0.2c0.67-1.27,2.24-1.76,3.51-1.09c1.27,0.67,1.76,2.24,1.09,3.51c-0.63,1.19-1.23,2.16-1.93,3.19
					c-0.47,0.68-1.07,1.77-1.59,2.41C414.92,294.98,413.83,292.85,413.83,292.84z"/>
				<path class="st16" d="M416.46,311.29c0.06,0.52,0.41,0.94,0.91,1.11c3.18,1.05,7.99,1.62,13.19,2.07
					c0.75,0.07,1.41-0.51,1.42-1.26c0.04-2.11-0.85-6.02-1.11-9.99c-0.32-4.93-0.53-10.31-0.64-13.78
					c-0.07-2.07-1.77-3.72-3.84-3.72h-5.8c-1.96,0-3.58,1.49-3.75,3.44c-0.22,2.7-0.55,6.62-0.87,10.48
					C415.68,303.31,416.23,309.16,416.46,311.29z"/>
				<path class="st14" d="M423.88,354.19l-0.02,5.13l0.45,2.5c0.08,0.43-0.24,0.83-0.68,0.85c-2.1,0.06-7.47,0.21-7.62-0.03
					c-0.68-1.09,2.38-1.51,4.61-2.38c2.23-0.86,0.69-9.35,0.69-9.35L423.88,354.19z"/>
				<path class="st24" d="M420.62,360.25c0.01,0,0.02-0.01,0.03-0.02c0.53,0.2,1.13,0.32,1.81,0.32c0.58,0,1.1-0.08,1.58-0.23
					l0.27,1.49c0.08,0.43-0.24,0.83-0.68,0.85c-2.1,0.06-7.47,0.21-7.62-0.03C415.33,361.54,418.39,361.12,420.62,360.25z"/>
				<path class="st25" d="M416.36,312.75c-0.08,3.56,1.32,26.17,4.09,26.23c2.77,0.06,5.86-22.44,5.94-26.01
					c0.08-3.56-2.1-6.5-4.87-6.57C418.75,306.35,416.44,309.19,416.36,312.75z"/>
				<path class="st26" d="M424.28,334.29c0.27,1.96,0.32,14.53-0.12,20.91h-2.52c-1.35-6.19-2.8-18.2-3.07-20.11
					c0-0.02,0-0.05-0.01-0.07c-1.51-6.66-2.25-19.64-2.19-22.27c0.08-3.56,2.39-6.4,5.16-6.34c2.77,0.06,4.95,3,4.87,6.57
					C426.34,315.22,424.15,333.36,424.28,334.29z"/>
				<path class="st27" d="M422.85,326.06c0.62,1.49,1.18,3.01,1.72,4.55c0.58-5.66,1.78-15.98,1.82-17.63
					c0.08-3.56-2.1-6.5-4.87-6.57c-2.77-0.06-5.08,2.78-5.16,6.34c-0.01,0.48,0.01,1.31,0.05,2.38
					C419.95,317.72,422.49,321.65,422.85,326.06z"/>
				<path class="st14" d="M429.93,354.19l-0.02,5.13l0.45,2.5c0.08,0.43-0.24,0.83-0.68,0.85c-2.1,0.06-7.47,0.21-7.62-0.03
					c-0.68-1.09,2.38-1.51,4.61-2.38c2.23-0.86,0.69-9.35,0.69-9.35L429.93,354.19z"/>
				<path class="st28" d="M426.67,360.25c0.01,0,0.02-0.01,0.03-0.02c0.53,0.2,1.13,0.32,1.81,0.32c0.58,0,1.1-0.08,1.58-0.23
					l0.27,1.49c0.08,0.43-0.24,0.83-0.68,0.85c-2.1,0.06-7.47,0.21-7.62-0.03C421.38,361.54,424.43,361.12,426.67,360.25z"/>
				<path class="st25" d="M422.41,312.75c-0.08,3.56,1.32,26.17,4.09,26.23c2.77,0.06,5.26-22.53,5.34-26.09
					c0.08-3.56-1.5-6.42-4.27-6.48C424.8,306.35,422.49,309.19,422.41,312.75z"/>
				<path class="st25" d="M430.32,334.29c0.27,1.96,0.32,14.53-0.12,20.91h-2.52c-1.35-6.19-2.8-18.2-3.07-20.11
					c0-0.02,0-0.05-0.01-0.07c-1.51-6.66-2.85-19.72-2.79-22.35c0.08-3.56,2.99-6.32,5.76-6.26c2.77,0.06,4.35,2.92,4.27,6.48
					C431.79,315.14,430.19,333.36,430.32,334.29z"/>
				<path class="st29" d="M416.95,287.88c0.1-1.23,1.13-2.17,2.36-2.17h1.34c0.47,1.08,1.46,1.92,2.99,1.92c1.54,0,2.53-0.84,3-1.92
					h1.23c1.25,0,2.28,0.99,2.32,2.25c0.09,3.27,0.19,8.22,0.56,13.91c0.34,5.15,1.78,7.51,1.07,12.75c0,0-13.51,1.04-15.77-1.55
					c-0.25-2.69-0.45-8.88-0.07-13.43C416.36,295.12,416.74,290.5,416.95,287.88z"/>
				<path class="st14" d="M404.09,276.49c0,0,0.05,2.55,0.66,2.89c0.61,0.34,1.01,0.19,1.49-0.56c0.55-0.86,0.69-2.35,0.72-3.26
					c0.01-0.51-0.67-2.49-0.85-2.61c-0.64-0.43-0.29,1.4-0.25,2.2c0.04,0.8-0.21,1.23-0.6,1.14c-0.39-0.09-0.33-1.34-0.74-1.6
					C404.11,274.44,404.09,276.49,404.09,276.49z"/>
				<path class="st16" d="M430.68,289.93c-7.26,9.9-20.78,15.71-30.96,6.08c-0.64-0.6,0.13-1.62,0.88-1.19l0.03,0.02
					c4.69,2.71,9,3.88,14.39,1.62c4.5-1.94,8.55-5.74,11.45-9.56l0.05-0.07C428.58,284.13,432.69,287.19,430.68,289.93z"/>
				<g>
					<path class="st23" d="M422.69,291.03c1.74-1.56,3.96-4.64,3.96-4.64s1.05-1.24,3.21-0.34c1.73,0.72,1.38,2.76,1.38,2.76
						c-0.04,0.28-0.62,3.65-4.59,6.62C426.64,295.43,423.48,293.96,422.69,291.03z"/>
				</g>
				<path class="st22" d="M424.01,282.71l0.15,0.03c1.18,0.26,2.35-0.48,2.61-1.66l0.7-3.16l-2.29-0.51L424.01,282.71z"/>
				<g>
					<polygon class="st16" points="421.96,285.72 426.28,285.72 425.04,281.4 422.09,281.77 					"/>
				</g>
				<path class="st14" d="M422.09,281.77l2.95-0.36l0.58,2.01c-0.66,0.74-1.64,1.9-2.71,1.9c-0.34,0-0.65-0.1-0.93-0.27
					L422.09,281.77z"/>
				<path class="st16" d="M421.64,284.06L421.64,284.06c1.94,0.43,3.87-0.79,4.3-2.73l0.87-3.92l-6.03-1.34c0,0-0.68,3.06-0.7,5.22
					C420.06,282.91,420.65,283.84,421.64,284.06z"/>
				<path class="st16" d="M425.08,280.36c-0.17,0.76,0.06,1.47,0.51,1.57c0.45,0.1,1.17-0.79,1.34-1.55
					c0.17-0.76-0.27-1.11-0.73-1.21C425.75,279.06,425.25,279.59,425.08,280.36z"/>
				<path class="st22" d="M420,277.59c-0.03-0.52,0.05-1.04,0.25-1.52l0,0c0.49-1.2,1.82-1.71,3.04-1.29
					c0.12,0.04,0.26,0.08,0.4,0.11l2.04,0.45c1.22,0.27,1.99,1.48,1.72,2.71l-0.11,0.47l-0.88,0.72l-0.82,0.84l-0.08-0.02
					c-0.39-0.09-0.64-0.46-0.58-0.85c0.1-0.64-0.22-1.26-0.85-1.4l-1.81-0.4c-1.1-0.24-1.8,0.22-1.99,1.04l-0.1,0.71L420,277.59z"/>
				<path class="st16" d="M399.06,293.73c0,0,0.15,2.17,0.83,2.34c0.68,0.17,1.16,0.17,1.45-0.81c0.29-0.98,0.22-2.46,0-3.33
					c-0.22-0.88-1.21-2.2-1.4-2.27c-0.72-0.26-0.16,1.29,0.07,2.05c0.24,0.76,0.43,1.65,0.03,1.66c-0.4,0.01-0.74-1.49-1.2-1.63
					C398.38,291.61,399.06,293.73,399.06,293.73z"/>
				<g>
					<line class="st30" x1="425.77" y1="300.83" x2="442.49" y2="392.68"/>
					<line class="st30" x1="417.74" y1="392.68" x2="401.03" y2="300.83"/>
					<line class="st30" x1="403" y1="308.21" x2="427.18" y2="308.21"/>
					<line class="st30" x1="404.6" y1="319.29" x2="429.13" y2="319.29"/>
					<line class="st30" x1="406.84" y1="330.37" x2="431.15" y2="330.37"/>
					<line class="st30" x1="409" y1="341.45" x2="433.16" y2="341.45"/>
					<line class="st30" x1="410.74" y1="352.53" x2="435.18" y2="352.53"/>
					<line class="st30" x1="412.38" y1="363.41" x2="437.16" y2="363.41"/>
					<line class="st30" x1="414.81" y1="374.69" x2="439.21" y2="374.69"/>
					<line class="st30" x1="416.48" y1="385.77" x2="440.95" y2="385.77"/>
				</g>
				<g>
					<line class="st31" x1="401.03" y1="300.83" x2="384.31" y2="392.68"/>
					<line class="st31" x1="409.05" y1="392.68" x2="425.77" y2="300.83"/>
					<line class="st31" x1="423.8" y1="308.21" x2="399.68" y2="308.21"/>
					<line class="st31" x1="422.19" y1="319.29" x2="397.67" y2="319.29"/>
					<line class="st31" x1="419.96" y1="330.37" x2="395.65" y2="330.37"/>
					<line class="st31" x1="417.79" y1="341.45" x2="393.63" y2="341.45"/>
					<line class="st31" x1="416.06" y1="352.53" x2="391.62" y2="352.53"/>
					<line class="st31" x1="414.42" y1="363.41" x2="389.64" y2="363.41"/>
					<line class="st31" x1="411.98" y1="374.69" x2="387.58" y2="374.69"/>
					<line class="st31" x1="410.31" y1="385.77" x2="385.85" y2="385.77"/>
				</g>
				<path class="st22" d="M426.09,276.16c0.14,1.12-3.88,2.53-4.94,2.66c-1.06,0.13-2.03-0.67-2.17-1.79s0.61-2.13,1.67-2.26
					C421.72,274.65,425.96,275.04,426.09,276.16z"/>
			</g>
			<rect x="416.58" y="223.03" class="st3" width="82.67" height="35.86"/>
			<path class="st8" d="M496.27,224.63l-74.59,15.01c-1.78,0.36-3.51-0.79-3.87-2.57l-5.78-28.71c-0.36-1.78,0.79-3.51,2.57-3.87
				l74.59-15.01c1.78-0.36,3.51,0.79,3.87,2.57l5.78,28.71C499.2,222.54,498.05,224.27,496.27,224.63z"/>
			<path class="st2" d="M496.64,220.95l-74.59,15.01c-1.78,0.36-3.51-0.79-3.87-2.57l-5.78-28.71c-0.36-1.78,0.79-3.51,2.57-3.87
				l74.59-15.01c1.78-0.36,3.51,0.79,3.87,2.57l5.78,28.71C499.57,218.86,498.42,220.6,496.64,220.95z"/>
			<polyline class="st32" points="413.82,215.56 423.8,199.43 425.62,91.54 482.86,187.15 495.03,196.33 			"/>
			<g>
				<path class="st33" d="M339.1,136.67c1.92,1.94,16.54,17.47,15.75,17.96c-0.69,0.42-17.93-11.96-19.84-13.9
					c-1.92-1.94-2.56-4.42-1.42-5.54C334.71,134.07,337.18,134.73,339.1,136.67z"/>
				<path class="st16" d="M359.58,156.79c-1.85-0.86-5.41-4.33-8.91-7.5l-0.87,2.34l5.61,5.18
					C356.66,157.33,358.64,157.4,359.58,156.79z"/>
				<path class="st28" d="M359.25,156.57c-1.27,0.45-2.82,0.45-3.93,0.17c0.02,0.41,0.03,1.5,0.05,1.88
					c0.01,0.27,0.22,0.49,0.49,0.53c0,0,8.63,0.06,8.62-0.25C364.37,156.71,359.87,156.92,359.25,156.57z"/>
				<path class="st16" d="M370.22,156.79c-1.85-0.86-5.41-4.33-8.91-7.5l-0.87,2.34l5.61,5.18
					C367.3,157.33,369.28,157.4,370.22,156.79z"/>
				<path class="st28" d="M369.89,156.57c-1.27,0.45-2.82,0.45-3.93,0.17c0.02,0.41,0.03,1.5,0.05,1.88
					c0.01,0.27,0.22,0.49,0.49,0.53c0,0,8.63,0.06,8.62-0.25C375.01,156.71,370.51,156.92,369.89,156.57z"/>
				<path class="st26" d="M345.56,140.63c1.19,1.2,11.88,9.58,17.25,13.27c0.75-0.55,1.22-0.99,1.76-1.74
					c-3.74-4.23-11.76-13.79-13.66-15.77c-2.13-3.07-17.75-11.64-20.86-12.77c-3.35-1.23-6.83-0.11-7.78,2.49
					c-0.95,2.6,0.75,6.15,4.1,7.37C328.54,134.26,344.76,139.82,345.56,140.63z"/>
				<path class="st27" d="M331.5,124.29c-0.56-0.26-1.02-0.46-1.34-0.58c-3.35-1.23-6.83-0.11-7.78,2.49
					c-0.95,2.6,0.75,6.15,4.1,7.37c1.09,0.4,5.71,2,10.15,3.59C333.94,133.38,332.07,129.09,331.5,124.29z"/>
				<path class="st25" d="M340.36,136.48c-1.34-1.93-8.05-6.06-13.61-9.12c-0.78-0.43-1.74-0.36-2.47,0.16
					c-1.65,1.17-3.38,2.24-5.1,3.32c-0.72,0.45-1.13,1.27-1.05,2.11c0.02,0.21,0.03,0.43,0.04,0.64c0.01,0.27-0.2,0.19-0.2,0.46
					c5.14,1.8,16.37,6.01,17.03,6.67c1.19,1.2,11.98,9.74,17.34,13.43c1.11-0.39,1.7-0.94,2.29-1.6
					C350.89,148.32,342.26,138.46,340.36,136.48z"/>
				<path class="st14" d="M317.59,103.19c6.46,5.98,20.22,6.63,29,6.3c1-0.04,1.09,1.3,0.21,1.47c-10.32,1.98-24.11,2.5-32.53-3.79
					c-2.75-2.05,0.35-6.22,3.11-4.16C317.46,103.06,317.53,103.12,317.59,103.19z"/>
				<path class="st34" d="M322.83,105.94c-0.94-0.46-4.62-2.28-5.36-2.85l-0.04-0.03c-0.06-0.05-0.12-0.09-0.18-0.13
					c-1.21-0.78-2.81-0.43-3.59,0.78c-0.78,1.21-0.43,2.81,0.78,3.59c1.13,0.73,2.14,1.28,3.24,1.83c0.74,0.36,1.5,0.68,2.26,0.99
					C320.08,109.57,322.83,105.95,322.83,105.94z"/>
				<path class="st16" d="M329.47,123.87l-11.49,10.19c-1.39-0.5-2.66-5.61-4.9-10.26c-2.42-5.03-5.26-10.49-6.81-13.43
					c-0.64-1.21-0.2-2.71,1-3.39l7.2-4.07c1.11-0.63,2.51-0.3,3.23,0.75c1.48,2.18,3.56,7.25,6.09,10.97
					C326.34,118.41,329.47,123.87,329.47,123.87z"/>
				<path class="st35" d="M314.53,102.87l-1.17,0.66c0.13,1.17-0.32,2.39-1.66,3.15c-1.34,0.76-2.61,0.52-3.55-0.2l-1.07,0.6
					c-1.09,0.62-1.5,1.99-0.91,3.09c1.53,2.89,4.44,8.47,6.91,13.61c2.24,4.65,3.37,9.51,4.9,10.26
					c5.12-3.53,11.65-7.16,12.25-10.38c0,0-7.97-11.76-12.58-20.08C317.05,102.52,315.6,102.27,314.53,102.87z"/>
				<path class="st14" d="M348.78,110.99c0,0-1.98,0.9-2.46,0.39c-0.48-0.51-0.7-0.95,0.02-1.67c0.72-0.72,2.06-1.36,2.93-1.59
					c0.88-0.23,2.51,0.02,2.66,0.16c0.57,0.51-1.06,0.76-1.84,0.91c-0.78,0.16-1.65,0.41-1.47,0.77c0.18,0.36,1.66-0.05,2,0.28
					C350.97,110.58,348.78,110.99,348.78,110.99z"/>
				<path class="st36" d="M309.3,101.94l-0.16,0.03c-1.19,0.22-2.33-0.56-2.56-1.74l-0.6-3.18l2.31-0.44L309.3,101.94z"/>
				<g>
					<polygon class="st16" points="312.94,105.1 309.3,106.61 308.92,106.17 309.12,101.43 312.08,101.24 					"/>
				</g>
				<path class="st14" d="M312.08,101.24l-2.96,0.19l-0.08,1.9c0.79,0.61,1.7,1.26,2.75,1.06c0.33-0.06,0.65-0.25,0.89-0.48
					L312.08,101.24z"/>
				<path class="st16" d="M311.63,103.37L311.63,103.37c-1.95,0.37-3.84-0.91-4.21-2.87l-0.75-3.94l6.07-1.15
					c0,0,0.58,3.08,0.53,5.24C313.24,102.27,312.62,103.18,311.63,103.37z"/>
				
					<rect x="306.67" y="98.02" transform="matrix(0.9825 -0.186 0.186 0.9825 -12.9192 58.8707)" class="st36" width="1.16" height="0.53"/>
				<path class="st16" d="M308.3,99.56c0.15,0.77-0.1,1.46-0.56,1.55c-0.45,0.09-1.15-0.83-1.29-1.6c-0.15-0.77,0.31-1.1,0.76-1.19
					C307.67,98.23,308.16,98.79,308.3,99.56z"/>
				<path class="st36" d="M313.47,96.95c0.05-0.52-0.02-1.04-0.2-1.53c0,0-0.31-1.77-1.06-1.97c-0.69-0.19-1.68,0.41-2.34,0.69
					c-0.48,0.2-2.05,0.39-2.05,0.39c-1.23,0.23-2.04,1.42-1.81,2.65l0.09,0.48l1.18,0.74l0.46,0.87l0.08-0.02
					c0.39-0.07,0.65-0.44,0.6-0.83c-0.08-0.64,0.26-1.26,0.89-1.38l1.82-0.34c1.11-0.21,1.79,0.28,1.95,1.1l0.08,0.71L313.47,96.95z
					"/>
				<line class="st37" x1="413.13" y1="82.73" x2="323.6" y2="121.07"/>
				<path class="st16" d="M315.65,113.11c3.2,1.84,6.22,2.38,9.47,2.71c5.61,0.68,15.55-2.74,14.55-2.44
					c0.85-0.26,1.35,0.95,0.56,1.36c-4.42,2.35-10.45,4.81-15.1,4.84l-2.36,0.04c-7.75-0.29-14.25-4.29-17.11-8.39
					c-0.82-1.17-0.53-2.79,0.64-3.6C309.2,105.61,309.93,109.86,315.65,113.11z"/>
				<g>
					<path class="st34" d="M313.53,111.54c-2.19-1.75-3.64-3.42-3.67-3.46l0.05,0.06l-1.43-1.08c0,0-1.52-0.56-2.96,1.29
						c-1.15,1.48,0.16,3.08,0.16,3.08c0.18,0.23,0.96,2.25,5.17,4.63C310.84,116.05,313.84,111.78,313.53,111.54z"/>
				</g>
				<path class="st16" d="M341.34,112.55c0,0-2.13,0.44-2.21,1.13c-0.08,0.69-0.01,1.18,1,1.33c1.01,0.16,2.46-0.11,3.3-0.44
					c0.84-0.33,2.02-1.49,2.06-1.69c0.16-0.75-1.3,0.01-2.03,0.35s-1.58,0.64-1.64,0.25c-0.06-0.39,1.38-0.93,1.45-1.41
					C343.35,111.6,341.34,112.55,341.34,112.55z"/>
			</g>
			<path class="st38" d="M495.67,273.83c0,1.46-1.18,2.65-2.65,2.65c-1.46,0-2.65-1.18-2.65-2.65s1.18-2.65,2.65-2.65
				C494.48,271.19,495.67,272.37,495.67,273.83z"/>
			<path class="st38" d="M495.67,291.92c0,1.46-1.18,2.65-2.65,2.65c-1.46,0-2.65-1.18-2.65-2.65s1.18-2.65,2.65-2.65
				C494.48,289.27,495.67,290.46,495.67,291.92z"/>
			<g>
				<path class="st6" d="M517.96,321.08c0,0,0.69,1.56,0.18,3.16c-0.51,1.59-0.2,3.57,1.13,5.01c0,0,0.26-2.26,0.71-3.34
					C520.43,324.83,520.13,321.65,517.96,321.08z"/>
				<path class="st39" d="M521.44,320.4c0,0-2.38,1.5-2.09,3.51c0,0-1.27-0.9-1.56-4C517.59,317.77,521.44,320.4,521.44,320.4z"/>
				<path class="st6" d="M534.45,329.79c-1.19-0.53-2.17-1.42-2.65-2.63c-0.77-1.96-2.19-3.5-3.94-4.25
					c-0.87-0.37-1.44-1.21-1.44-2.15l0,0h-2.35v1.79c-3.23,0.73-5.67,4.03-5.67,7.99c0,4.34,2.93,7.88,6.62,8.12
					c0.52,3.9,3.42,6.88,6.92,6.88c3.87,0,7.01-3.64,7.01-8.14C538.96,333.92,537.09,330.96,534.45,329.79z"/>
				<g>
					<path class="st16" d="M520.93,332.89c-0.03,0.26-0.06,0.41-0.1,0.58c-0.03,0.17-0.07,0.33-0.11,0.48
						c-0.08,0.31-0.17,0.62-0.28,0.92c-0.2,0.6-0.48,1.19-0.8,1.75c-0.64,1.14-1.6,2.14-2.69,2.94c-0.58,0.34-1.18,0.68-1.8,0.89
						c-0.63,0.16-1.26,0.41-1.87,0.43c-0.61,0.03-1.24,0.12-1.82,0.07c-0.58-0.06-1.15-0.14-1.72-0.22
						c-2.18-0.5-4.16-1.29-5.94-2.31l-1.33-0.77c-0.45-0.25-0.88-0.51-1.28-0.82l-2.46-1.75c-0.33-0.24-0.41-0.7-0.17-1.03
						c0.21-0.29,0.59-0.39,0.9-0.25l0.05,0.02c1.79,0.78,3.55,1.61,5.36,2.18c1.79,0.62,3.61,1.01,5.32,1.11
						c1.71,0.05,3.18-0.36,4.07-1.19c0.42-0.45,0.81-0.93,1.06-1.56c0.12-0.31,0.25-0.63,0.32-0.98c0.05-0.17,0.08-0.34,0.1-0.51
						c0.02-0.09,0.03-0.17,0.03-0.24c0.01-0.08,0.02-0.17,0.01-0.15c0.11-1.43,1.37-2.49,2.79-2.38S521.04,331.46,520.93,332.89z"/>
				</g>
				<path class="st16" d="M515.49,355.13c2.26,2.59,15.29,3.67,15.29,3.67c0.96-1.12-3.52-13.86-3.52-13.86s2.16-9.2,2.06-12.52
					c-0.04-1.37-1.16-2.46-2.53-2.46h-8.27c-1.28,0-2.34,0.97-2.44,2.24c-0.22,2.63,3.22,12.45,3.22,12.45
					S513.54,352.89,515.49,355.13z"/>
				<path class="st14" d="M522.63,405.4c-0.08,0.17-0.09,0.37-0.02,0.55c0.07,0.18,0.21,0.32,0.39,0.39
					c1.62,0.66,2.25,0.44,3.19-0.21l-0.01-7.84l-1.55-2.34c-0.36-0.54-1.21-0.22-1.11,0.42c0.46,3.25,0.9,8.2-0.66,8.54
					C522.86,404.92,522.75,405.15,522.63,405.4z"/>
				<path class="st40" d="M524.24,405.77c-0.39-0.05-1.26-0.46-1.42-0.79c-3.28,0.28-4.85,1.36-4.85,2.32
					c0.14,0.23,5.76,0.04,7.86-0.01c0.44-0.01,0.61-0.43,0.54-0.86l-0.15-1.23C525.92,405.58,525.25,405.89,524.24,405.77z"/>
				<path class="st16" d="M546.75,368.34c-6.26,1.72-16.91,5.18-18.62,6.06c-2.43,1.24-3.16,3.59-2.44,5.01
					c0.73,1.42,2.63,1.37,5.06,0.12c1.67-0.86,11.41-6.39,16.91-9.71C547.45,369.19,546.93,368.98,546.75,368.34z"/>
				<path class="st16" d="M552.35,368.95c0.19,0,0.37-0.09,0.5-0.23c0.13-0.14,0.19-0.33,0.18-0.52c-0.14-1.74-0.61-2.21-1.62-2.76
					c-2.21,1.28-4.41,2.57-7.91,3.86l0,0c-0.6,1.21,0.72,2.47,1.9,1.81c2.61-1.45,5.68-2.89,6.41-2.16
					C551.82,368.95,552.07,368.95,552.35,368.95z"/>
				<path class="st40" d="M551.96,367.34c0.13,0.37,0.15,1.33-0.07,1.63c1.72,2.8,3.39,3.73,4.25,3.3c0.14-0.23-2.54-5.17-3.53-7.02
					c-0.21-0.39-0.66-0.36-1.01-0.1l-1.03,0.69C551.04,365.92,551.62,366.39,551.96,367.34z"/>
				<path class="st14" d="M523.86,398.39c0.7,0.42,1.59,0.33,2.29,0.75c0.16-6.55-0.03-17.21-0.36-19.06
					c-0.48-2.68-2.14-4.64-3.7-4.36c-1.57,0.28-2.45,2.68-1.97,5.37C520.41,382.77,522.32,392.11,523.86,398.39z"/>
				<path class="st14" d="M515.74,357.35c0.2,3.56,3.4,25.98,6.17,25.83c2.76-0.16,4.05-22.84,3.84-26.4
					c-0.2-3.56-2.61-6.32-5.37-6.16C517.61,350.78,515.53,353.79,515.74,357.35z"/>
				<path class="st16" d="M519.99,356.51c0.06,3.56,4.06,23.87,6.83,23.83c2.77-0.05,3.76-20.51,3.7-24.08
					c-0.06-3.56-2.85-6.33-5.62-6.29C522.12,350.01,519.93,352.94,519.99,356.51z"/>
				<g>
					<polygon class="st16" points="521.44,330.53 525.19,330.14 524,326.03 521.58,326.33 					"/>
				</g>
				<path class="st14" d="M521.58,326.33l2.43-0.3l0.37,1.28c-0.54,0.61-1.24,1.94-2.12,1.94c-0.28,0-0.54-0.08-0.77-0.22
					L521.58,326.33z"/>
				<path class="st16" d="M521.49,328.32c0.82,0,1.72-0.41,2.94-1.49c0.7-0.62,1.23-1.69,1.23-2.42v-4.01h-6.18
					c0,0-0.46,2.13-0.01,4.25C519.81,326.24,520.84,328.32,521.49,328.32z"/>
				<rect x="524.83" y="321.94" class="st6" width="1.16" height="0.53"/>
				<path class="st16" d="M524.62,323.66c0,0.78,0.37,1.42,0.84,1.42s0.97-1.03,0.97-1.81c0-0.78-0.51-1.03-0.97-1.03
					S524.62,322.88,524.62,323.66z"/>
				<path class="st6" d="M524.16,318.62l-2.09,0c-0.57,0-1.12-0.14-1.61-0.4c-0.79-0.42-1.78-0.3-2.29,0.43
					c-0.5,0.73-0.68,1.68,0.65,2.56c0.68,0.45,1.68-0.05,2.35,0.17c0.04,0,0.08-0.01,0.12-0.01h1.85c0.65,0,1.09,0.54,1.13,1.19
					c0.02,0.39,0.35,0.7,0.75,0.7h0.08l0.29-0.94l1.03-0.95v-0.49C526.42,319.64,525.41,318.62,524.16,318.62z"/>
				<path class="st16" d="M496.77,335.04c0,0,2.09,0.59,2.49,0.02c0.39-0.58,0.55-1.04-0.27-1.64c-0.82-0.6-2.24-1.04-3.14-1.13
					c-0.9-0.09-2.47,0.39-2.61,0.55c-0.49,0.59,1.16,0.59,1.96,0.63c0.8,0.04,1.7,0.16,1.57,0.54c-0.13,0.38-1.65,0.19-1.94,0.58
					C494.55,334.96,496.77,335.04,496.77,335.04z"/>
				<path class="st38" d="M499.58,337.15c0,2.74-2.22,4.97-4.97,4.97c-2.74,0-4.97-2.22-4.97-4.97c0-2.74,2.22-4.97,4.97-4.97
					C497.36,332.18,499.58,334.4,499.58,337.15z"/>
				<path class="st16" d="M496.79,340.37c0,0,2.11-0.54,2.49,0.04c0.38,0.59,0.53,1.05-0.31,1.64c-0.84,0.58-2.26,0.99-3.16,1.06
					c-0.9,0.07-2.46-0.45-2.6-0.62c-0.48-0.6,1.17-0.56,1.97-0.58c0.8-0.02,1.7-0.12,1.58-0.5c-0.12-0.38-1.65-0.23-1.92-0.63
					C494.56,340.39,496.79,340.37,496.79,340.37z"/>
				<path class="st28" d="M527.92,345.77c-0.39-0.44-0.54-1.05-0.42-1.62c0.57-2.75,1.88-9.38,1.81-11.94
					c-0.04-1.25-1.06-2.25-2.32-2.25h-1.23c-0.47,1.08-1.46,1.92-3,1.92c-1.54,0-2.53-0.84-2.99-1.92h-1.15
					c1.12,2.4,0.88,5.49-0.73,7.59c-0.37,0.49-0.49,1.12-0.32,1.71c0.46,1.57,0.94,3.05,1.27,4.06c0.23,0.69,0.05,1.43-0.46,1.95
					c-3.5,3.53-5.92,11.02-5.92,19.69c0,0.74,0.02,1.47,0.06,2.18c0.05,1.03,0.9,1.84,1.93,1.84h16.95c1.03,0,1.88-0.81,1.93-1.84
					c0.04-0.72,0.06-1.45,0.06-2.18C533.39,356.68,531.18,349.47,527.92,345.77z"/>
				<path class="st41" d="M528.22,340.34c0.43-2.21,0.87-4.77,1.03-6.63c-1.48,4.41-5.52,7.77-10.25,8.25
					c1.03,0.42,2.45,0.95,3.83,1.44C525.2,344.24,527.75,342.79,528.22,340.34z"/>
				<path class="st6" d="M519.79,320.86c0.37,0.83,0.2,1.37,3.13,2.07c2.93,0.7,3.64-0.09,4.78,1.17c0,0-0.88-2.34-2.52-2.81
					c-1.64-0.47-4.28-0.38-5.51-2.11C519.68,319.18,519.54,320.29,519.79,320.86z"/>
				<g>
					<path class="st16" d="M530.27,333.04c-0.15,0.79-0.29,1.11-0.48,1.59c-0.19,0.43-0.4,0.84-0.63,1.22
						c-0.24,0.37-0.47,0.75-0.74,1.09c-0.28,0.33-0.55,0.66-0.83,0.98c-0.62,0.56-1.22,1.17-1.9,1.6c-0.33,0.23-0.66,0.47-1,0.69
						l-1.04,0.56c-2.82,1.4-5.74,2.03-8.61,2.36c-2.88,0.21-5.71,0.24-8.49-0.06c-1.39-0.18-2.78-0.26-4.14-0.53
						c-1.36-0.26-2.73-0.51-4.08-0.79c-0.4-0.08-0.66-0.48-0.57-0.88c0.07-0.35,0.38-0.59,0.72-0.59l0.04,0c1.36-0.02,2.72,0,4.07,0
						c1.35,0.02,2.69-0.1,4.02-0.14l1-0.04l0.99-0.11l1.97-0.19c0.66-0.04,1.3-0.18,1.94-0.29c0.64-0.12,1.28-0.22,1.91-0.35
						c2.49-0.61,4.91-1.38,6.88-2.61l0.74-0.45l0.65-0.52c0.47-0.32,0.79-0.74,1.17-1.1c0.15-0.21,0.31-0.4,0.47-0.6
						c0.15-0.2,0.25-0.41,0.39-0.61c0.11-0.2,0.2-0.41,0.29-0.6l0.11-0.28l0.03-0.1l0.01-0.04c-0.01,0.02-0.01,0.04-0.01,0.06
						c0.21-1.42,1.52-2.4,2.94-2.19C529.5,330.31,530.48,331.63,530.27,333.04z"/>
				</g>
			</g>
			<circle class="st42" cx="416.26" cy="91.54" r="9.35"/>
			<circle class="st42" cx="416.26" cy="91.54" r="3.85"/>
		</g>
		<text transform="matrix(1 0 0 1 27.6182 59.848)" class="st6 st43 st44">Isometric Web Design</text>
	</g>
</g>
<g id="shadow_1_">
</g>
<g id="objects">
</g>
</svg>
