<?xml version="1.0" encoding="utf-8"?>
<!-- Generator: Adobe Illustrator 23.0.4, SVG Export Plug-In . SVG Version: 6.00 Build 0)  -->
<svg version="1.1" id="Layer_1" xmlns="http://www.w3.org/2000/svg" xmlns:xlink="http://www.w3.org/1999/xlink" x="0px" y="0px"
	 viewBox="0 0 100 100" style="enable-background:new 0 0 100 100;" xml:space="preserve">
<style type="text/css">
	.st0{fill:none;}
	.st1{fill:#13A1B8;}
	.st2{fill:#FFFFFF;}
</style>
<g>
	<path class="st0" d="M37.49,35.4l4.94,7.8c5.95,9.4,10.59,17.84,14.4,26.06l0.24-0.12c-0.95-10.7-1.19-20.46-1.19-32.95V23.27
		C47.5,23.99,41.38,28.61,37.49,35.4z"/>
	<path class="st0" d="M55.16,82.82L33.19,47.7c-0.5,2.83-0.84,5.74-0.84,8.75c0,17.13,9.28,32.48,25.58,32.48
		c16.42,0,25.7-15.11,25.7-33.31c0-13.37-5.94-27.1-17.99-31.24v58.44H55.16z"/>
	<path class="st1" d="M65.63,15.27v9.12c12.06,4.13,17.99,17.87,17.99,31.24c0,18.2-9.28,33.31-25.7,33.31
		c-16.3,0-25.58-15.35-25.58-32.48c0-3.01,0.34-5.91,0.84-8.75l-3.49-5.57c-1.35-2.15-2.59-4.33-3.89-6.49
		c-2.82,6.02-4.53,13.03-4.53,21.05c0,24.27,14.88,40.68,36.05,40.68c20.46,0,37.24-14.63,37.24-42.23
		C94.57,34.04,83.41,18.53,65.63,15.27z"/>
	<path class="st2" d="M33.19,47.7l21.97,35.12h10.47V24.38v-9.12V2.63h-9.76v12.2v8.44v12.91c0,12.49,0.24,22.25,1.19,32.95
		l-0.24,0.12c-3.81-8.21-8.45-16.66-14.4-26.06l-4.94-7.8l-5.78-9.12L16.73,2.63H5.43v80.19h9.76V48.55
		c0-13.33-0.24-22.96-0.83-33.07l0.36-0.12c3.07,6.59,6.99,13.45,11.1,20.28c1.3,2.17,2.54,4.34,3.89,6.49L33.19,47.7z"/>
</g>
</svg>
