<?xml version="1.0" encoding="utf-8"?>
<!-- Generator: Adobe Illustrator 23.0.4, SVG Export Plug-In . SVG Version: 6.00 Build 0)  -->
<svg version="1.1" xmlns="http://www.w3.org/2000/svg" xmlns:xlink="http://www.w3.org/1999/xlink" x="0px" y="0px"
	 viewBox="0 0 800 450" style="enable-background:new 0 0 800 450;" xml:space="preserve">
<style type="text/css">
	.st0{fill:url(#SVGID_1_);}
	.st1{filter:url(#Adobe_OpacityMaskFilter);}
	.st2{fill:url(#SVGID_3_);}
	.st3{mask:url(#SVGID_2_);}
	.st4{fill:#2FC1D6;}
	.st5{fill:#2EC2E1;}
	.st6{fill:#474747;}
	.st7{fill:#F5F6F6;}
	.st8{fill:#FFFFFF;}
	.st9{fill:#FFC907;}
	.st10{fill:#F26622;}
	.st11{fill:#08A0B5;}
	.st12{fill:#96B53C;}
	.st13{fill:#B5B5B5;}
	.st14{fill:#067997;}
	.st15{fill:#DCDCDC;}
	.st16{fill:#FEDC00;}
	.st17{fill:#FEF065;}
	.st18{fill:#592B0E;}
	.st19{fill:#0782A0;}
	.st20{fill:#656565;}
	.st21{fill:#797979;}
	.st22{opacity:0.1;}
	.st23{fill:#333232;}
	.st24{opacity:0.5;fill:#E9F6F8;}
	.st25{fill:#058CAA;}
</style>
<g id="background">
	<g>
		<radialGradient id="SVGID_1_" cx="401.0862" cy="233.0711" r="344.0226" gradientUnits="userSpaceOnUse">
			<stop  offset="0" style="stop-color:#00B4D2"/>
			<stop  offset="0.2693" style="stop-color:#00B2D0"/>
			<stop  offset="0.4853" style="stop-color:#00ACCA"/>
			<stop  offset="0.6826" style="stop-color:#00A2C0"/>
			<stop  offset="0.7" style="stop-color:#00A1BF"/>
			<stop  offset="1" style="stop-color:#0782A0"/>
		</radialGradient>
		<rect x="-16.29" y="-16.93" class="st0" width="834.75" height="500"/>
		<defs>
			<filter id="Adobe_OpacityMaskFilter" filterUnits="userSpaceOnUse" x="146.64" y="-13.82" width="477.97" height="477.97">
				<feColorMatrix  type="matrix" values="1 0 0 0 0  0 1 0 0 0  0 0 1 0 0  0 0 0 1 0"/>
			</filter>
		</defs>
		<mask maskUnits="userSpaceOnUse" x="146.64" y="-13.82" width="477.97" height="477.97" id="SVGID_2_">
			<g class="st1">
				<radialGradient id="SVGID_3_" cx="385.627" cy="225.1636" r="239.1414" gradientUnits="userSpaceOnUse">
					<stop  offset="0.4" style="stop-color:#FFFFFF"/>
					<stop  offset="1" style="stop-color:#010101"/>
				</radialGradient>
				<circle class="st2" cx="385.63" cy="225.16" r="239.14"/>
			</g>
		</mask>
		<g class="st3">
			<g>
				<rect x="146.64" y="-9.22" class="st4" width="1.48" height="468.77"/>
				<rect x="168.3" y="-9.22" class="st4" width="1.48" height="468.78"/>
				<rect x="189.96" y="-9.22" class="st4" width="1.48" height="468.77"/>
				<rect x="211.62" y="-9.22" class="st4" width="1.48" height="468.77"/>
				<rect x="233.28" y="-9.22" class="st4" width="1.48" height="468.77"/>
				<rect x="254.94" y="-9.22" class="st4" width="1.48" height="468.78"/>
				<rect x="276.6" y="-9.22" class="st4" width="1.48" height="468.77"/>
				<rect x="298.25" y="-9.22" class="st4" width="1.48" height="468.77"/>
				<rect x="319.91" y="-9.22" class="st4" width="1.48" height="468.77"/>
				<rect x="341.57" y="-9.22" class="st4" width="1.48" height="468.78"/>
				<rect x="363.23" y="-9.22" class="st4" width="1.48" height="468.77"/>
				<rect x="384.89" y="-9.22" class="st4" width="1.48" height="468.77"/>
				<rect x="406.55" y="-9.22" class="st4" width="1.48" height="468.77"/>
				<rect x="428.21" y="-9.22" class="st4" width="1.48" height="468.77"/>
				<rect x="449.87" y="-9.22" class="st4" width="1.48" height="468.78"/>
				<rect x="471.53" y="-9.22" class="st4" width="1.48" height="468.77"/>
				<rect x="493.18" y="-9.22" class="st4" width="1.48" height="468.77"/>
				<rect x="514.84" y="-9.22" class="st4" width="1.48" height="468.77"/>
				<rect x="536.5" y="-9.22" class="st4" width="1.48" height="468.78"/>
				<rect x="558.16" y="-9.22" class="st4" width="1.48" height="468.77"/>
				<rect x="579.82" y="-9.22" class="st4" width="1.48" height="468.77"/>
				<rect x="601.48" y="-9.22" class="st4" width="1.48" height="468.77"/>
				<rect x="623.14" y="-9.22" class="st4" width="1.48" height="468.78"/>
			</g>
			<g>
				<rect x="151.24" y="-13.82" class="st4" width="468.77" height="1.48"/>
				<rect x="151.24" y="7.84" class="st4" width="468.77" height="1.48"/>
				<rect x="151.24" y="29.5" class="st4" width="468.77" height="1.48"/>
				<rect x="151.24" y="51.16" class="st4" width="468.77" height="1.48"/>
				<rect x="151.24" y="72.81" class="st4" width="468.77" height="1.48"/>
				<rect x="151.24" y="94.47" class="st4" width="468.77" height="1.48"/>
				<rect x="151.24" y="116.13" class="st4" width="468.77" height="1.48"/>
				<rect x="151.24" y="137.79" class="st4" width="468.77" height="1.48"/>
				<rect x="151.24" y="159.45" class="st4" width="468.77" height="1.48"/>
				<rect x="151.24" y="181.11" class="st4" width="468.77" height="1.48"/>
				<rect x="151.24" y="202.77" class="st4" width="468.77" height="1.48"/>
				<rect x="151.24" y="224.43" class="st4" width="468.77" height="1.48"/>
				<rect x="151.24" y="246.08" class="st4" width="468.77" height="1.48"/>
				<rect x="151.24" y="267.74" class="st4" width="468.77" height="1.48"/>
				<rect x="151.24" y="289.4" class="st4" width="468.77" height="1.48"/>
				<rect x="151.24" y="311.06" class="st4" width="468.77" height="1.48"/>
				<rect x="151.24" y="332.72" class="st4" width="468.77" height="1.48"/>
				<rect x="151.24" y="354.38" class="st4" width="468.77" height="1.48"/>
				<rect x="151.24" y="376.04" class="st4" width="468.77" height="1.48"/>
				<rect x="151.24" y="397.7" class="st4" width="468.77" height="1.48"/>
				<rect x="151.24" y="419.35" class="st4" width="468.77" height="1.48"/>
				<rect x="151.24" y="441.02" class="st4" width="468.77" height="1.48"/>
				<rect x="151.24" y="462.67" class="st4" width="468.77" height="1.48"/>
			</g>
		</g>
		<g>
			<path class="st5" d="M437.17,132.32c-16.24,0-29.45-13.21-29.45-29.45c0-16.24,13.21-29.45,29.45-29.45
				c16.24,0,29.45,13.21,29.45,29.45C466.62,119.1,453.41,132.32,437.17,132.32z M437.17,75.72c-14.97,0-27.14,12.18-27.14,27.14
				c0,14.97,12.17,27.14,27.14,27.14c14.97,0,27.14-12.18,27.14-27.14C464.31,87.9,452.14,75.72,437.17,75.72z"/>
			<rect x="435.02" y="63.61" class="st5" width="4.29" height="19.7"/>
			<rect x="435.02" y="122.41" class="st5" width="4.29" height="19.7"/>
			<rect x="456.72" y="100.72" class="st5" width="19.7" height="4.29"/>
			<rect x="397.92" y="100.72" class="st5" width="19.7" height="4.29"/>
			<g>
				<rect x="426.3" y="87.42" class="st5" width="3.77" height="21.82"/>
				<rect x="431.43" y="89.74" class="st5" width="3.77" height="19.51"/>
				<rect x="436.56" y="95.82" class="st5" width="3.77" height="13.42"/>
				<rect x="441.68" y="91.96" class="st5" width="3.77" height="17.28"/>
				<rect x="446.81" y="99.74" class="st5" width="3.77" height="9.51"/>
			</g>
			<g>
				<rect x="439.95" y="112.17" class="st5" width="5.6" height="1.15"/>
				<rect x="432.52" y="112.17" class="st5" width="6.15" height="1.15"/>
				<rect x="428.79" y="112.17" class="st5" width="2.46" height="1.15"/>
				<rect x="437.13" y="115.02" class="st5" width="8.42" height="1.15"/>
				<rect x="428.79" y="115.02" class="st5" width="7.07" height="1.15"/>
				<rect x="440.86" y="117.88" class="st5" width="4.69" height="1.15"/>
				<rect x="432.09" y="117.88" class="st5" width="7.51" height="1.15"/>
				<rect x="428.79" y="117.88" class="st5" width="2.02" height="1.15"/>
			</g>
			<path class="st5" d="M437.17,128.08c-13.91,0-25.22-11.31-25.22-25.22c0-13.91,11.31-25.22,25.22-25.22
				c13.91,0,25.22,11.31,25.22,25.22C462.39,116.77,451.08,128.08,437.17,128.08z M437.17,78.8c-13.27,0-24.07,10.8-24.07,24.07
				c0,13.27,10.8,24.07,24.07,24.07c13.27,0,24.07-10.8,24.07-24.07C461.24,89.59,450.44,78.8,437.17,78.8z"/>
		</g>
		<g>
			<path class="st6" d="M443.72,219.79c-1.88,0-3.42-1.54-3.42-3.42V106.61c0-1.88,1.54-3.42,3.42-3.42h82.06
				c1.88,0,3.42,1.54,3.42,3.42v109.76c0,1.88-1.54,3.42-3.42,3.42H443.72z"/>
			<rect x="443.72" y="106.61" class="st7" width="82.06" height="109.76"/>
			<rect x="484.16" y="106.61" class="st8" width="41.62" height="109.76"/>
			<rect x="472.22" y="98.7" class="st9" width="25.07" height="13.11"/>
			<path class="st9" d="M484.75,103.55c-2.67,0-4.84-2.18-4.84-4.85c0-2.67,2.17-4.84,4.84-4.84c2.67,0,4.84,2.17,4.84,4.84
				C489.6,101.37,487.42,103.55,484.75,103.55z M484.75,95.57c-1.73,0-3.13,1.41-3.13,3.13c0,1.73,1.41,3.14,3.13,3.14
				c1.73,0,3.13-1.41,3.13-3.14C487.89,96.97,486.48,95.57,484.75,95.57z"/>
			<g>
				<rect x="484.16" y="115.42" class="st10" width="5.64" height="32.63"/>
				<rect x="491.83" y="118.89" class="st9" width="5.64" height="29.17"/>
				<rect x="499.5" y="127.99" class="st11" width="5.64" height="20.07"/>
				<rect x="507.17" y="122.22" class="st12" width="5.64" height="25.84"/>
				<rect x="514.83" y="133.84" class="st13" width="5.64" height="14.22"/>
			</g>
			<g>
				<rect x="448.4" y="115.42" class="st13" width="28.64" height="3.42"/>
				<rect x="448.4" y="121.26" class="st13" width="28.64" height="3.42"/>
				<rect x="448.4" y="127.11" class="st13" width="28.64" height="3.42"/>
				<rect x="448.4" y="132.95" class="st13" width="28.64" height="3.42"/>
				<rect x="448.4" y="138.79" class="st13" width="28.64" height="3.42"/>
			</g>
			<rect x="448.4" y="152.07" class="st13" width="72.08" height="3.42"/>
			<rect x="448.4" y="158.07" class="st13" width="72.08" height="3.42"/>
			<g>
				<g>
					<g>
						<path class="st14" d="M466.19,191.26l14.39-10.45c5.77,7.95,4.01,19.07-3.94,24.85c-7.95,5.78-19.07,4.01-24.85-3.94
							c-5.78-7.94-4.01-19.07,3.93-24.85c3.18-2.31,6.53-3.4,10.46-3.4V191.26z"/>
					</g>
				</g>
				<g>
					<g>
						<path class="st15" d="M466.19,191.26v-17.79c5.89,0,10.92,2.56,14.39,7.33L466.19,191.26z"/>
					</g>
				</g>
			</g>
			<rect x="448.4" y="164.07" class="st13" width="72.08" height="3.42"/>
			<g>
				<rect x="491.83" y="188.1" class="st13" width="28.64" height="3.42"/>
				<rect x="491.84" y="193.95" class="st13" width="28.64" height="3.42"/>
				<rect x="491.84" y="199.79" class="st13" width="28.64" height="3.42"/>
				<rect x="491.84" y="205.63" class="st13" width="28.64" height="3.42"/>
			</g>
			<rect x="491.83" y="173.47" class="st13" width="28.64" height="7.58"/>
			<g>
				<g>
					<polygon class="st16" points="542.71,145.52 540.18,141.01 537.65,145.52 538.09,150.27 542.27,150.27 					"/>
				</g>
				<g>
					<polygon class="st9" points="537.65,145.52 538.09,150.27 540.18,150.27 540.18,141.01 					"/>
				</g>
				<g>
					<g>
						<polygon class="st17" points="541.3,150.27 541.78,150.27 542.12,145.52 540.18,141.01 541.54,145.52 						"/>
					</g>
				</g>
				<g>
					<path class="st18" d="M540.18,146.55c-0.3,0-0.55-0.25-0.55-0.55c0-0.31,0.25-0.55,0.55-0.55c0.31,0,0.55,0.24,0.55,0.55
						C540.73,146.3,540.48,146.55,540.18,146.55z"/>
				</g>
				<g>
					<path class="st16" d="M537.34,150.59v-0.5c0-0.12,0.05-0.23,0.13-0.31c0.08-0.08,0.2-0.13,0.31-0.13l4.79,0.01
						c0.24,0,0.44,0.2,0.44,0.44v0.5L537.34,150.59z"/>
				</g>
				<g>
					<polygon class="st18" points="540.2,141.01 540.34,146 540.02,146 540.17,141.01 					"/>
				</g>
				<g>
					<polygon class="st14" points="537.07,165.49 537.4,150.59 542.97,150.58 543.29,165.49 					"/>
				</g>
				<g>
					<path class="st16" d="M537.18,166.54c-0.18,0-0.33-0.14-0.33-0.32v-0.4c0-0.18,0.15-0.33,0.33-0.33h6.01
						c0.18,0,0.33,0.15,0.33,0.33v0.4c0,0.18-0.15,0.32-0.33,0.32H537.18z"/>
				</g>
				<g>
					<path class="st14" d="M540.18,219.31c-1.2,0-2.17-1.38-2.17-3.08c0,0,0,0,0-0.01h0c0,0-0.11-2.07-0.28-5.14
						c-0.02-0.41-0.04-0.84-0.06-1.27c-0.4-7.71-1.02-20.03-1.03-23.59c-0.04-7.13,0.4-19.67,0.4-19.67h6.31
						c0,0,0.44,12.54,0.41,19.67c-0.02,3.56-0.63,15.88-1.04,23.59c-0.02,0.44-0.04,0.86-0.06,1.27c-0.16,3.08-0.28,5.16-0.28,5.16
						h-0.01C542.36,217.93,541.38,219.31,540.18,219.31z"/>
				</g>
				<g>
					<path class="st19" d="M540.18,219.31v-52.76h3.15c0,0,0.44,12.54,0.41,19.67c-0.02,3.56-0.63,15.88-1.04,23.59
						c-0.02,0.44-0.04,0.86-0.06,1.27c-0.16,3.08-0.28,5.16-0.28,5.16h-0.01C542.36,217.93,541.38,219.31,540.18,219.31z"/>
				</g>
				<g>
					<polygon class="st19" points="540.18,150.59 540.18,165.49 543.29,165.49 542.97,150.58 					"/>
				</g>
			</g>
		</g>
		<g>
			<rect x="242.19" y="106.92" class="st6" width="2.39" height="54.14"/>
			<rect x="322.13" y="106.92" class="st6" width="2.39" height="54.14"/>
			<path class="st9" d="M381.6,104.53c0,1.32-1.08,2.39-2.39,2.39H224.92c-1.32,0-2.39-1.08-2.39-2.39V90.47
				c0-1.32,1.08-2.39,2.39-2.39H379.2c1.32,0,2.39,1.08,2.39,2.39V104.53z"/>
			<path class="st14" d="M275.82,148.24c0,1.32-1.08,2.39-2.39,2.39h-60.08c-1.32,0-2.39-1.08-2.39-2.39v-25.28
				c0-1.32,1.08-2.39,2.39-2.39h60.08c1.32,0,2.39,1.08,2.39,2.39V148.24z"/>
			<path class="st14" d="M355.76,133.21c0,1.32-1.08,2.39-2.39,2.39h-60.08c-1.32,0-2.39-1.08-2.39-2.39v-10.24
				c0-1.32,1.08-2.39,2.39-2.39h60.08c1.32,0,2.39,1.08,2.39,2.39V133.21z"/>
			<path class="st12" d="M355.76,173.7c0,1.32-1.08,2.39-2.39,2.39h-60.08c-1.32,0-2.39-1.08-2.39-2.39v-26.01
				c0-1.32,1.08-2.39,2.39-2.39h60.08c1.32,0,2.39,1.08,2.39,2.39V173.7z"/>
			<path class="st8" d="M275.82,179.62c0,1.32-1.08,2.39-2.39,2.39h-60.08c-1.32,0-2.39-1.08-2.39-2.39v-16.17
				c0-1.32,1.08-2.39,2.39-2.39h60.08c1.32,0,2.39,1.08,2.39,2.39V179.62z"/>
			<path class="st14" d="M397.21,153.09c0,1.32-1.08,2.39-2.39,2.39h-21.32c-1.32,0-2.39-1.08-2.39-2.39v-30.12
				c0-1.32,1.08-2.39,2.39-2.39h21.32c1.32,0,2.39,1.08,2.39,2.39V153.09z"/>
			<path class="st15" d="M381.6,215.15c0,1.32-1.08,2.39-2.39,2.39h-44.47c-1.32,0-2.39-1.08-2.39-2.39V195.1
				c0-1.32,1.08-2.39,2.39-2.39h44.47c1.32,0,2.39,1.08,2.39,2.39V215.15z"/>
			<path class="st9" d="M318.35,215.15c0,1.32-1.08,2.39-2.39,2.39h-44.47c-1.32,0-2.39-1.08-2.39-2.39V195.1
				c0-1.32,1.08-2.39,2.39-2.39h44.47c1.32,0,2.39,1.08,2.39,2.39V215.15z"/>
			<rect x="355.76" y="126.89" class="st6" width="15.34" height="2.39"/>
			<rect x="303.29" y="176.09" class="st20" width="2.39" height="16.61"/>
			<rect x="343.34" y="176.09" class="st20" width="2.39" height="16.61"/>
			<g>
				<rect x="360.45" y="93.16" class="st8" width="14.51" height="2.39"/>
				<rect x="335.03" y="93.16" class="st8" width="23.03" height="2.39"/>
				<rect x="321.72" y="93.16" class="st8" width="10.91" height="2.39"/>
				<rect x="293.16" y="93.16" class="st8" width="26.17" height="2.39"/>
				<rect x="281.2" y="93.16" class="st8" width="9.57" height="2.39"/>
				<rect x="264.6" y="93.16" class="st8" width="14.21" height="2.39"/>
				<rect x="239.33" y="93.16" class="st8" width="22.88" height="2.39"/>
				<rect x="229.16" y="93.16" class="st8" width="7.78" height="2.39"/>
				<rect x="350.88" y="99.44" class="st8" width="24.07" height="2.39"/>
				<rect x="326.21" y="99.44" class="st8" width="22.28" height="2.39"/>
				<rect x="301.99" y="99.44" class="st8" width="21.83" height="2.39"/>
				<rect x="288.23" y="99.44" class="st8" width="11.36" height="2.39"/>
				<rect x="268.94" y="99.44" class="st8" width="16.9" height="2.39"/>
				<rect x="245.16" y="99.44" class="st8" width="21.38" height="2.39"/>
				<rect x="229.16" y="99.44" class="st8" width="13.61" height="2.39"/>
			</g>
			<g>
				<path class="st21" d="M215.96,172.13c0-6.33,1.59-7.64,3.46-7.64c1.88,0,3.48,1.28,3.48,7.64c0,6.19-1.6,7.78-3.48,7.78
					C217.55,179.91,215.96,178.32,215.96,172.13z M221.28,172.13c0-4.56-0.52-6.29-1.86-6.29c-1.35,0-1.85,1.73-1.85,6.29
					c0,4.69,0.55,6.43,1.86,6.43C220.74,178.56,221.28,176.85,221.28,172.13z"/>
				<path class="st21" d="M226.03,179.06v-12.09c0-0.21-0.07-0.3-0.15-0.28c0,0-0.9,0.23-0.91,0.23c-0.15,0.02-0.23-0.06-0.23-0.4
					v-0.81c0-0.27,0.1-0.36,0.24-0.39l2.4-0.63c0.05-0.01,0.09-0.02,0.14-0.02c0.14,0,0.21,0.09,0.21,0.44v13.95
					c0,0.45-0.1,0.7-0.25,0.7h-1.2C226.12,179.76,226.03,179.51,226.03,179.06z"/>
				<path class="st21" d="M231.27,179.06v-12.09c0-0.21-0.06-0.3-0.14-0.28c0,0-0.91,0.23-0.92,0.23c-0.15,0.02-0.23-0.06-0.23-0.4
					v-0.81c0-0.27,0.11-0.36,0.24-0.39l2.4-0.63c0.05-0.01,0.1-0.02,0.14-0.02c0.14,0,0.21,0.09,0.21,0.44v13.95
					c0,0.45-0.11,0.7-0.25,0.7h-1.2C231.37,179.76,231.27,179.51,231.27,179.06z"/>
				<path class="st21" d="M235.49,172.13c0-6.33,1.59-7.64,3.46-7.64c1.88,0,3.48,1.28,3.48,7.64c0,6.19-1.6,7.78-3.48,7.78
					C237.08,179.91,235.49,178.32,235.49,172.13z M240.81,172.13c0-4.56-0.51-6.29-1.86-6.29c-1.35,0-1.85,1.73-1.85,6.29
					c0,4.69,0.55,6.43,1.86,6.43C240.28,178.56,240.81,176.85,240.81,172.13z"/>
				<path class="st21" d="M245.56,179.06v-12.09c0-0.21-0.06-0.3-0.14-0.28c0,0-0.91,0.23-0.92,0.23c-0.15,0.02-0.23-0.06-0.23-0.4
					v-0.81c0-0.27,0.1-0.36,0.24-0.39l2.4-0.63c0.05-0.01,0.1-0.02,0.14-0.02c0.14,0,0.21,0.09,0.21,0.44v13.95
					c0,0.45-0.1,0.7-0.25,0.7h-1.2C245.66,179.76,245.56,179.51,245.56,179.06z"/>
				<path class="st21" d="M249.78,172.13c0-6.33,1.59-7.64,3.46-7.64c1.88,0,3.48,1.28,3.48,7.64c0,6.19-1.6,7.78-3.48,7.78
					C251.37,179.91,249.78,178.32,249.78,172.13z M255.1,172.13c0-4.56-0.51-6.29-1.86-6.29c-1.35,0-1.85,1.73-1.85,6.29
					c0,4.69,0.55,6.43,1.86,6.43C254.57,178.56,255.1,176.85,255.1,172.13z"/>
				<path class="st21" d="M259.85,179.06v-12.09c0-0.21-0.06-0.3-0.14-0.28c0,0-0.91,0.23-0.92,0.23c-0.15,0.02-0.23-0.06-0.23-0.4
					v-0.81c0-0.27,0.1-0.36,0.24-0.39l2.4-0.63c0.05-0.01,0.1-0.02,0.14-0.02c0.14,0,0.21,0.09,0.21,0.44v13.95
					c0,0.45-0.1,0.7-0.25,0.7h-1.2C259.95,179.76,259.85,179.51,259.85,179.06z"/>
				<path class="st21" d="M264.07,172.13c0-6.33,1.59-7.64,3.46-7.64c1.88,0,3.48,1.28,3.48,7.64c0,6.19-1.6,7.78-3.48,7.78
					C265.66,179.91,264.07,178.32,264.07,172.13z M269.39,172.13c0-4.56-0.51-6.29-1.86-6.29c-1.35,0-1.85,1.73-1.85,6.29
					c0,4.69,0.55,6.43,1.86,6.43C268.86,178.56,269.39,176.85,269.39,172.13z"/>
			</g>
			<g>
				<rect x="262.21" y="125.39" class="st8" width="8.52" height="2.39"/>
				<rect x="251.54" y="125.39" class="st8" width="8.27" height="2.39"/>
				<rect x="227.12" y="125.39" class="st8" width="22.03" height="2.39"/>
				<rect x="216.04" y="125.39" class="st8" width="8.69" height="2.39"/>
				<rect x="257.33" y="131.4" class="st8" width="13.41" height="2.39"/>
				<rect x="245.56" y="131.4" class="st8" width="9.37" height="2.39"/>
				<rect x="232.01" y="131.4" class="st8" width="11.17" height="2.39"/>
				<rect x="216.04" y="131.4" class="st8" width="13.58" height="2.39"/>
				<rect x="255.13" y="137.41" class="st8" width="15.6" height="2.39"/>
				<rect x="248.95" y="137.41" class="st8" width="3.79" height="2.39"/>
				<rect x="223.93" y="137.41" class="st8" width="22.63" height="2.39"/>
				<rect x="216.04" y="137.41" class="st8" width="5.5" height="2.39"/>
				<rect x="261.02" y="143.43" class="st8" width="9.72" height="2.39"/>
				<rect x="238.29" y="143.43" class="st8" width="20.34" height="2.39"/>
				<rect x="224.03" y="143.43" class="st8" width="11.86" height="2.39"/>
				<rect x="216.04" y="143.43" class="st8" width="5.6" height="2.39"/>
			</g>
			<g>
				<rect x="376.41" y="125.99" class="st12" width="4.16" height="24.07"/>
				<rect x="382.07" y="128.55" class="st9" width="4.16" height="21.52"/>
				<rect x="387.73" y="135.26" class="st8" width="4.16" height="14.8"/>
			</g>
			<g>
				<rect x="295.77" y="124.39" class="st8" width="55.12" height="2.39"/>
				<rect x="295.77" y="129.4" class="st8" width="55.12" height="2.39"/>
			</g>
			<g>
				<rect x="339.37" y="150.26" class="st8" width="11.51" height="2.39"/>
				<rect x="319.63" y="150.26" class="st8" width="17.34" height="2.39"/>
				<rect x="303.33" y="150.26" class="st8" width="13.91" height="2.39"/>
				<rect x="295.77" y="150.26" class="st8" width="5.17" height="2.39"/>
				<rect x="332.49" y="156.42" class="st8" width="18.39" height="2.39"/>
				<rect x="308.27" y="156.42" class="st8" width="21.83" height="2.39"/>
				<rect x="295.77" y="156.42" class="st8" width="10.11" height="2.39"/>
				<rect x="337.57" y="162.58" class="st8" width="13.31" height="2.39"/>
				<rect x="321.57" y="162.58" class="st8" width="13.61" height="2.39"/>
				<rect x="305.13" y="162.58" class="st8" width="14.06" height="2.39"/>
				<rect x="295.77" y="162.58" class="st8" width="6.97" height="2.39"/>
				<rect x="341.31" y="168.74" class="st8" width="9.57" height="2.39"/>
				<rect x="321.87" y="168.74" class="st8" width="17.05" height="2.39"/>
				<rect x="311.26" y="168.74" class="st8" width="8.22" height="2.39"/>
				<rect x="295.77" y="168.74" class="st8" width="13.1" height="2.39"/>
			</g>
			<g>
				<polygon class="st8" points="293.09,214.96 288.25,207.54 282.15,214.04 280.85,212.81 288.5,204.65 293.23,211.89 
					302.25,200.51 303.66,201.63 				"/>
				<g>
					<path class="st8" d="M306.32,196.83c-0.84,2.58-1.54,6.06-1.42,8.66l-2.39-3.86l-4.3-1.44
						C300.77,199.71,304,198.24,306.32,196.83z"/>
				</g>
			</g>
			<g>
				<g>
					<rect x="336.59" y="197.72" class="st21" width="40.76" height="2.39"/>
					<rect x="336.59" y="203.93" class="st21" width="40.76" height="2.39"/>
					<rect x="336.59" y="210.14" class="st21" width="40.76" height="2.39"/>
				</g>
			</g>
		</g>
		<g>
			<g>
				<path class="st5" d="M258,278.34c-0.7-0.18-1.4-0.35-2.05-0.5c0.02-0.24,0.05-0.49,0.05-0.72c0.08-1.56,0.13-2.6,0.13-2.6
					s-0.05-1.04-0.13-2.6c0-0.22-0.03-0.48-0.06-0.72c0.66-0.15,1.35-0.32,2.05-0.5c2.65-0.66,5.28-1.45,5.28-1.45
					s-0.09-0.6-0.23-1.5c-0.07-0.45-0.15-0.97-0.24-1.54c-0.11-0.56-0.28-1.14-0.42-1.73c-0.32-1.17-0.56-2.37-0.91-3.21
					c-0.31-0.86-0.52-1.43-0.52-1.43s-2.71,0.52-5.37,1.17c-0.7,0.17-1.38,0.34-2.02,0.5c-0.09-0.22-0.18-0.46-0.26-0.67
					c-0.68-1.41-1.13-2.35-1.13-2.35s-0.09-0.25-0.33-0.63c-0.24-0.39-0.57-0.95-0.98-1.61c-0.12-0.19-0.25-0.41-0.38-0.61
					c0.5-0.44,1.04-0.91,1.57-1.39c2.06-1.84,4-3.76,4-3.76s-0.36-0.49-0.9-1.22c-0.54-0.73-1.27-1.7-2.11-2.58
					c-1.57-1.85-3.42-3.43-3.42-3.43c0,0-2.16,1.72-4.21,3.53c-0.54,0.47-1.07,0.94-1.56,1.39c-0.19-0.16-0.38-0.32-0.55-0.47
					c-1.25-0.94-2.08-1.56-2.08-1.56s-0.2-0.18-0.59-0.4c-0.39-0.24-0.95-0.58-1.61-0.98c-0.19-0.11-0.42-0.24-0.62-0.37
					c0.24-0.62,0.5-1.29,0.75-1.96c0.97-2.57,1.81-5.18,1.81-5.18s-0.55-0.26-1.37-0.66c-0.41-0.2-0.89-0.43-1.4-0.67
					c-0.52-0.23-1.1-0.42-1.66-0.64c-2.26-0.92-4.63-1.45-4.63-1.45c0,0-1.11,2.52-2.08,5.08c-0.26,0.66-0.51,1.33-0.74,1.95
					c-0.24-0.06-0.48-0.11-0.7-0.16c-1.55-0.24-2.58-0.39-2.58-0.39s-0.26-0.05-0.71-0.1c-0.45-0.02-1.11-0.06-1.89-0.09
					c-0.22-0.01-0.48-0.02-0.72-0.04c-0.07-0.66-0.16-1.37-0.25-2.08c-0.17-1.37-0.37-2.74-0.53-3.77
					c-0.17-1.02-0.28-1.69-0.28-1.69s-0.6,0.03-1.51,0.07c-0.91,0.07-2.12,0.04-3.32,0.25c-1.2,0.18-2.4,0.37-3.3,0.51
					c-0.88,0.21-1.47,0.36-1.47,0.36s0.19,2.76,0.51,5.49c0.08,0.71,0.17,1.41,0.25,2.07c-0.23,0.06-0.48,0.13-0.7,0.18
					c-0.76,0.17-1.35,0.47-1.79,0.6c-0.43,0.16-0.67,0.25-0.67,0.25s-0.24,0.09-0.67,0.24c-0.44,0.13-1.02,0.43-1.72,0.77
					c-0.2,0.09-0.43,0.21-0.65,0.31c-0.37-0.55-0.77-1.13-1.18-1.72c-1.57-2.26-3.27-4.46-3.27-4.46s-0.13,0.07-0.37,0.19
					c-0.23,0.14-0.55,0.33-0.94,0.56c-0.77,0.48-1.84,1.07-2.82,1.77c-0.97,0.73-1.94,1.45-2.67,2c-0.7,0.58-1.14,1-1.14,1
					s1.46,2.35,3.01,4.62c0.4,0.59,0.8,1.17,1.19,1.71c-0.18,0.16-0.37,0.34-0.54,0.48c-0.6,0.51-0.98,1.04-1.31,1.36
					c-0.31,0.34-0.48,0.53-0.48,0.53s-0.18,0.19-0.48,0.53c-0.33,0.32-0.69,0.86-1.17,1.48c-0.14,0.17-0.29,0.38-0.43,0.58
					c-0.58-0.31-1.21-0.65-1.85-0.97c-2.44-1.27-4.96-2.44-4.96-2.44s-0.1,0.11-0.24,0.34c-0.14,0.23-0.34,0.55-0.58,0.93
					c-0.46,0.79-1.14,1.79-1.68,2.88c-0.53,1.09-1.05,2.19-1.45,3.01c-0.35,0.84-0.54,1.42-0.54,1.42s2.38,1.41,4.81,2.69
					c0.63,0.34,1.26,0.66,1.84,0.97c-0.08,0.23-0.17,0.47-0.25,0.68c-0.3,0.73-0.39,1.38-0.52,1.81c-0.11,0.44-0.18,0.69-0.18,0.69
					s-0.06,0.25-0.18,0.69c-0.14,0.44-0.23,1.08-0.35,1.85c-0.03,0.22-0.07,0.47-0.11,0.71c-0.66,0-1.37-0.01-2.09,0
					c-2.75,0.01-5.52,0.16-5.52,0.16s-0.11,0.6-0.13,1.51c-0.04,0.91-0.1,2.12-0.16,3.33c0.06,1.21,0.12,2.42,0.16,3.33
					c0.03,0.91,0.13,1.51,0.13,1.51s2.77,0.14,5.52,0.15c0.71,0.01,1.42,0.01,2.09,0c0.04,0.24,0.09,0.49,0.11,0.71
					c0.11,0.77,0.21,1.42,0.35,1.86c0.11,0.44,0.18,0.69,0.18,0.69s0.07,0.25,0.18,0.69c0.13,0.43,0.22,1.09,0.52,1.81
					c0.08,0.21,0.16,0.45,0.25,0.68c-0.59,0.3-1.22,0.63-1.84,0.96c-2.43,1.29-4.81,2.7-4.81,2.7s0.2,0.57,0.54,1.41
					c0.39,0.82,0.92,1.92,1.45,3.01c0.54,1.08,1.22,2.09,1.68,2.88c0.24,0.39,0.44,0.71,0.58,0.94c0.13,0.23,0.24,0.35,0.24,0.35
					s2.52-1.17,4.96-2.44c0.64-0.33,1.26-0.66,1.85-0.98c0.15,0.2,0.29,0.4,0.43,0.58c0.47,0.62,0.84,1.16,1.17,1.48
					c0.31,0.34,0.48,0.53,0.48,0.53s0.18,0.2,0.48,0.53c0.32,0.32,0.71,0.86,1.31,1.36c0.16,0.15,0.35,0.32,0.54,0.49
					c-0.38,0.54-0.79,1.12-1.19,1.71c-1.55,2.26-3.01,4.62-3.01,4.62c0,0,0.44,0.42,1.14,1c0.73,0.55,1.7,1.27,2.67,2
					c0.99,0.7,2.06,1.29,2.83,1.77c0.39,0.23,0.72,0.43,0.94,0.57c0.24,0.12,0.37,0.19,0.37,0.19c0,0,1.69-2.2,3.26-4.46
					c0.41-0.58,0.81-1.17,1.18-1.72c0.22,0.1,0.45,0.22,0.65,0.31c0.7,0.34,1.28,0.64,1.72,0.77c0.43,0.16,0.67,0.25,0.67,0.25
					s0.24,0.09,0.67,0.24c0.43,0.14,1.02,0.43,1.79,0.6c0.22,0.06,0.46,0.12,0.7,0.18c-0.09,0.66-0.17,1.36-0.25,2.07
					c-0.32,2.73-0.51,5.49-0.51,5.49s0.59,0.14,1.47,0.36c0.9,0.14,2.1,0.32,3.3,0.51c1.2,0.21,2.41,0.18,3.32,0.25
					c0.91,0.04,1.51,0.07,1.51,0.07s0.11-0.68,0.28-1.69c0.16-1.03,0.36-2.4,0.53-3.77c0.09-0.71,0.17-1.42,0.25-2.08
					c0.25-0.01,0.5-0.02,0.72-0.03c0.78-0.04,1.43-0.07,1.89-0.09c0.45-0.05,0.71-0.1,0.71-0.1s1.03-0.16,2.57-0.39
					c0.21-0.05,0.46-0.11,0.7-0.17c0.23,0.62,0.48,1.29,0.74,1.95c0.98,2.55,2.09,5.08,2.09,5.08c0,0,2.37-0.53,4.63-1.45
					c0.57-0.22,1.15-0.4,1.66-0.64c0.51-0.24,0.99-0.47,1.4-0.67c0.82-0.4,1.37-0.66,1.37-0.66s-0.84-2.61-1.81-5.18
					c-0.25-0.67-0.51-1.34-0.75-1.97c0.2-0.12,0.43-0.25,0.62-0.37c0.67-0.41,1.22-0.74,1.61-0.98c0.4-0.22,0.59-0.4,0.59-0.4
					s0.83-0.62,2.08-1.56c0.17-0.15,0.36-0.31,0.55-0.47c0.49,0.45,1.02,0.92,1.56,1.39c2.06,1.81,4.21,3.53,4.21,3.53
					s1.85-1.58,3.42-3.43c0.84-0.87,1.57-1.84,2.11-2.58c0.54-0.73,0.91-1.21,0.91-1.21s-1.95-1.92-4.01-3.76
					c-0.53-0.48-1.07-0.95-1.57-1.39c0.13-0.21,0.26-0.43,0.38-0.62c0.4-0.67,0.74-1.22,0.98-1.61c0.24-0.39,0.33-0.63,0.33-0.63
					s0.45-0.94,1.13-2.35c0.08-0.21,0.17-0.44,0.26-0.67c0.64,0.16,1.33,0.34,2.02,0.5c2.66,0.64,5.37,1.16,5.37,1.16
					c0,0,0.21-0.57,0.52-1.43c0.35-0.84,0.59-2.04,0.91-3.21c0.14-0.59,0.31-1.18,0.42-1.73c0.09-0.56,0.17-1.09,0.24-1.53
					c0.13-0.9,0.23-1.5,0.23-1.5S260.65,279,258,278.34z M246.68,288.32c-0.2,0.32-0.48,0.78-0.82,1.34
					c-0.17,0.28-0.35,0.58-0.54,0.89c-0.22,0.3-0.46,0.61-0.7,0.93c-0.48,0.65-0.98,1.36-1.6,1.97c-1.11,1.33-2.44,2.45-3.41,3.3
					c-1.04,0.78-1.73,1.29-1.73,1.29c0,0-0.16,0.15-0.49,0.33c-0.32,0.2-0.79,0.47-1.34,0.81c-0.28,0.16-0.57,0.37-0.9,0.53
					c-0.33,0.16-0.69,0.33-1.05,0.5c-0.72,0.36-1.5,0.75-2.32,1c-1.59,0.66-3.29,1.02-4.54,1.33c-1.28,0.2-2.13,0.32-2.13,0.32
					s-0.21,0.04-0.59,0.09c-0.38,0.02-0.92,0.04-1.57,0.07c-0.65,0.03-1.4,0.1-2.22,0.02c-0.8-0.07-1.68-0.02-2.53-0.18
					c-0.85-0.15-1.71-0.24-2.5-0.4c-0.78-0.2-1.51-0.39-2.14-0.55c-0.64-0.13-1.12-0.39-1.48-0.5c-0.35-0.13-0.55-0.21-0.55-0.21
					s-0.2-0.07-0.56-0.2c-0.36-0.1-0.84-0.36-1.43-0.64c-1.19-0.51-2.68-1.4-4.12-2.34c-0.69-0.52-1.38-1.04-2.03-1.53
					c-0.6-0.55-1.16-1.05-1.64-1.49c-0.5-0.42-0.81-0.87-1.08-1.13c-0.25-0.28-0.4-0.44-0.4-0.44s-0.14-0.16-0.4-0.44
					c-0.28-0.26-0.57-0.71-0.96-1.23c-0.82-1.01-1.73-2.48-2.56-3.99c-0.36-0.78-0.76-1.55-1.09-2.29
					c-0.28-0.76-0.53-1.47-0.76-2.08c-0.25-0.59-0.31-1.14-0.43-1.5c-0.09-0.37-0.15-0.57-0.15-0.57s-0.06-0.21-0.15-0.57
					c-0.12-0.36-0.19-0.9-0.28-1.54c-0.08-0.64-0.26-1.38-0.3-2.19c-0.04-0.81-0.09-1.67-0.13-2.54c0.04-0.87,0.09-1.73,0.13-2.54
					c0.04-0.81,0.22-1.55,0.3-2.19c0.09-0.64,0.16-1.18,0.28-1.54c0.1-0.36,0.15-0.57,0.15-0.57s0.05-0.21,0.15-0.57
					c0.12-0.36,0.17-0.9,0.43-1.5c0.22-0.61,0.48-1.32,0.76-2.07c0.33-0.74,0.73-1.5,1.09-2.29c0.83-1.51,1.74-2.98,2.56-3.99
					c0.39-0.51,0.69-0.97,0.96-1.23c0.26-0.28,0.4-0.44,0.4-0.44s0.15-0.16,0.4-0.44c0.27-0.26,0.58-0.72,1.08-1.13
					c0.48-0.44,1.04-0.95,1.64-1.49c0.65-0.49,1.34-1.01,2.03-1.53c1.44-0.95,2.93-1.83,4.12-2.34c0.58-0.28,1.06-0.53,1.43-0.64
					c0.36-0.13,0.56-0.2,0.56-0.2s0.2-0.07,0.55-0.2c0.36-0.11,0.84-0.37,1.48-0.5c0.63-0.16,1.35-0.35,2.14-0.55
					c0.79-0.16,1.65-0.25,2.5-0.4c0.85-0.16,1.72-0.1,2.53-0.18c0.81-0.08,1.57-0.01,2.22,0.02c0.65,0.03,1.19,0.05,1.57,0.07
					c0.37,0.05,0.59,0.09,0.59,0.09s0.85,0.13,2.13,0.32c1.25,0.32,2.95,0.67,4.54,1.33c0.83,0.26,1.6,0.65,2.32,1
					c0.37,0.17,0.72,0.34,1.05,0.5c0.33,0.17,0.62,0.37,0.9,0.53c0.56,0.33,1.02,0.61,1.34,0.81c0.33,0.18,0.49,0.33,0.49,0.33
					c0,0,0.69,0.52,1.73,1.29c0.97,0.85,2.3,1.97,3.42,3.29c0.62,0.61,1.11,1.32,1.6,1.97c0.24,0.32,0.48,0.64,0.7,0.93
					c0.19,0.32,0.37,0.62,0.54,0.89c0.34,0.55,0.62,1.01,0.82,1.33c0.21,0.32,0.27,0.52,0.27,0.53c0,0,0.38,0.77,0.94,1.94
					c0.46,1.21,1.13,2.8,1.48,4.49c0.1,0.42,0.24,0.83,0.31,1.25c0.06,0.42,0.12,0.83,0.18,1.23c0.12,0.8,0.27,1.54,0.26,2.2
					c0.07,1.3,0.12,2.16,0.12,2.16s-0.05,0.86-0.12,2.16c0.01,0.65-0.13,1.4-0.26,2.2c-0.06,0.4-0.12,0.81-0.18,1.23
					c-0.07,0.42-0.21,0.83-0.31,1.25c-0.36,1.69-1.03,3.29-1.48,4.49c-0.56,1.17-0.94,1.94-0.94,1.94S246.88,288,246.68,288.32z"/>
				<path class="st5" d="M221.47,251.27c-12.84,0-23.25,10.41-23.25,23.25s10.41,23.25,23.25,23.25c12.84,0,23.25-10.41,23.25-23.25
					S234.31,251.27,221.47,251.27z M221.47,283.88c-5.17,0-9.36-4.19-9.36-9.36s4.19-9.36,9.36-9.36c5.17,0,9.36,4.19,9.36,9.36
					S226.64,283.88,221.47,283.88z"/>
			</g>
			<path class="st5" d="M282.22,230.49c0.02-0.16,0.05-0.32,0.07-0.47c0.08-0.51,0.06-0.95,0.09-1.24c0.01-0.3,0.02-0.47,0.02-0.47
				s-0.01-0.17-0.02-0.47c-0.03-0.3-0.01-0.73-0.09-1.24c-0.02-0.15-0.05-0.31-0.07-0.47c0.43-0.13,0.9-0.27,1.36-0.42
				c1.79-0.57,3.55-1.28,3.55-1.28s-0.11-0.44-0.28-1.09c-0.14-0.66-0.47-1.5-0.79-2.35c-0.69-1.67-1.69-3.18-1.69-3.18
				c0,0-1.73,0.73-3.41,1.6c-0.44,0.22-0.86,0.45-1.26,0.66c-0.09-0.13-0.19-0.27-0.29-0.38c-0.29-0.43-0.62-0.71-0.81-0.95
				c-0.2-0.22-0.32-0.35-0.32-0.35s-0.13-0.12-0.35-0.32c-0.23-0.19-0.52-0.52-0.95-0.81c-0.12-0.09-0.25-0.19-0.38-0.28
				c0.22-0.4,0.45-0.83,0.67-1.26c0.87-1.68,1.59-3.41,1.59-3.41s-1.51-0.99-3.17-1.69c-0.84-0.31-1.68-0.64-2.35-0.79
				c-0.65-0.17-1.09-0.28-1.09-0.28s-0.71,1.76-1.28,3.55c-0.15,0.46-0.29,0.93-0.42,1.36c-0.16-0.02-0.32-0.05-0.47-0.07
				c-0.51-0.08-0.94-0.06-1.24-0.09c-0.3-0.02-0.47-0.03-0.47-0.03s-0.17,0.01-0.48,0.03c-0.3,0.03-0.73,0.01-1.24,0.09
				c-0.15,0.02-0.31,0.05-0.47,0.07c-0.13-0.43-0.27-0.9-0.42-1.36c-0.57-1.79-1.29-3.55-1.29-3.55s-0.44,0.11-1.09,0.28
				c-0.66,0.14-1.5,0.47-2.35,0.79c-1.67,0.69-3.17,1.69-3.17,1.69s0.73,1.73,1.6,3.41c0.22,0.43,0.45,0.86,0.67,1.26
				c-0.13,0.1-0.27,0.19-0.39,0.29c-0.43,0.29-0.71,0.62-0.95,0.81c-0.22,0.2-0.35,0.32-0.35,0.32s-0.12,0.13-0.32,0.35
				c-0.19,0.23-0.52,0.52-0.81,0.95c-0.09,0.11-0.19,0.25-0.28,0.38c-0.4-0.22-0.83-0.44-1.26-0.66c-1.68-0.87-3.41-1.6-3.41-1.6
				s-0.99,1.51-1.69,3.18c-0.31,0.84-0.64,1.68-0.79,2.35c-0.17,0.66-0.28,1.09-0.28,1.09s1.76,0.71,3.55,1.28
				c0.47,0.15,0.93,0.29,1.36,0.42c-0.03,0.16-0.06,0.33-0.07,0.47c-0.09,0.51-0.06,0.95-0.09,1.24c-0.02,0.3-0.02,0.47-0.02,0.47
				s0.01,0.17,0.02,0.47c0.03,0.3,0.01,0.73,0.09,1.24c0.02,0.15,0.05,0.31,0.07,0.47c-0.43,0.13-0.9,0.27-1.36,0.42
				c-1.79,0.57-3.55,1.28-3.55,1.28s0.11,0.44,0.28,1.09c0.14,0.66,0.47,1.5,0.79,2.35c0.69,1.67,1.69,3.17,1.69,3.17
				s1.73-0.73,3.41-1.59c0.43-0.22,0.86-0.45,1.26-0.67c0.09,0.13,0.19,0.27,0.28,0.38c0.29,0.43,0.62,0.71,0.81,0.95
				c0.2,0.22,0.32,0.35,0.32,0.35s0.13,0.12,0.35,0.32c0.23,0.19,0.52,0.52,0.95,0.81c0.12,0.09,0.26,0.19,0.39,0.28
				c-0.22,0.4-0.45,0.83-0.67,1.26c-0.87,1.68-1.6,3.41-1.6,3.41s1.51,0.99,3.17,1.69c0.84,0.31,1.68,0.64,2.35,0.79
				c0.66,0.16,1.09,0.28,1.09,0.28s0.71-1.76,1.29-3.55c0.15-0.46,0.29-0.92,0.42-1.36c0.16,0.03,0.32,0.06,0.47,0.07
				c0.51,0.08,0.95,0.06,1.24,0.09c0.3,0.02,0.48,0.02,0.48,0.02s0.17-0.01,0.47-0.02c0.3-0.03,0.73-0.01,1.24-0.09
				c0.15-0.02,0.31-0.05,0.47-0.07c0.13,0.44,0.27,0.9,0.42,1.36c0.57,1.79,1.28,3.55,1.28,3.55s0.44-0.11,1.09-0.28
				c0.66-0.14,1.5-0.47,2.35-0.79c1.67-0.69,3.17-1.69,3.17-1.69s-0.73-1.73-1.59-3.41c-0.22-0.44-0.45-0.86-0.67-1.26
				c0.13-0.09,0.27-0.19,0.38-0.28c0.43-0.29,0.71-0.62,0.95-0.81c0.22-0.2,0.35-0.32,0.35-0.32s0.11-0.13,0.32-0.35
				c0.19-0.23,0.52-0.52,0.81-0.95c0.09-0.12,0.19-0.25,0.29-0.38c0.4,0.22,0.83,0.44,1.26,0.67c1.68,0.87,3.41,1.59,3.41,1.59
				c0,0,0.99-1.51,1.69-3.17c0.31-0.84,0.64-1.69,0.79-2.35c0.17-0.66,0.28-1.09,0.28-1.09s-1.76-0.71-3.55-1.28
				C283.12,230.76,282.65,230.62,282.22,230.49z M275.19,235.61c-0.17,0.13-0.36,0.38-0.67,0.58c-0.57,0.47-1.43,0.96-2.32,1.36
				c-0.91,0.37-1.87,0.59-2.6,0.68c-0.36,0.07-0.68,0.04-0.89,0.06c-0.22,0.01-0.34,0.02-0.34,0.02s-0.12-0.01-0.34-0.02
				c-0.21-0.03-0.53,0-0.89-0.06c-0.73-0.09-1.69-0.31-2.6-0.68c-0.89-0.4-1.75-0.89-2.32-1.36c-0.31-0.2-0.51-0.45-0.67-0.58
				c-0.16-0.14-0.25-0.23-0.25-0.23s-0.08-0.09-0.23-0.25c-0.13-0.17-0.38-0.37-0.58-0.68c-0.48-0.57-0.96-1.43-1.36-2.32
				c-0.37-0.91-0.59-1.87-0.68-2.6c-0.07-0.36-0.04-0.68-0.06-0.89c-0.01-0.22-0.02-0.34-0.02-0.34s0.01-0.12,0.02-0.34
				c0.02-0.21,0-0.53,0.06-0.89c0.09-0.73,0.31-1.69,0.68-2.6c0.4-0.89,0.89-1.75,1.36-2.32c0.2-0.31,0.45-0.51,0.58-0.68
				c0.14-0.16,0.23-0.25,0.23-0.25s0.09-0.08,0.25-0.22c0.17-0.13,0.36-0.38,0.67-0.58c0.57-0.47,1.43-0.96,2.32-1.36
				c0.91-0.37,1.87-0.59,2.6-0.68c0.36-0.07,0.68-0.04,0.89-0.06c0.21-0.01,0.34-0.02,0.34-0.02s0.12,0.01,0.34,0.02
				c0.21,0.03,0.53,0,0.89,0.06c0.73,0.09,1.69,0.31,2.6,0.68c0.89,0.4,1.75,0.89,2.32,1.36c0.31,0.2,0.5,0.45,0.67,0.58
				c0.16,0.14,0.25,0.22,0.25,0.22s0.08,0.09,0.22,0.25c0.13,0.17,0.38,0.36,0.58,0.68c0.47,0.57,0.97,1.43,1.37,2.32
				c0.37,0.91,0.59,1.87,0.68,2.6c0.06,0.36,0.04,0.68,0.06,0.89c0.01,0.22,0.02,0.34,0.02,0.34s-0.01,0.12-0.02,0.34
				c-0.02,0.21,0,0.53-0.06,0.89c-0.09,0.73-0.31,1.69-0.68,2.6c-0.4,0.89-0.89,1.75-1.37,2.32c-0.2,0.31-0.45,0.51-0.58,0.68
				c-0.14,0.16-0.22,0.25-0.22,0.25S275.36,235.46,275.19,235.61z"/>
			<g>
				<g>
					<path class="st5" d="M196.45,211.14v-9.19c0-0.16-0.05-0.23-0.11-0.22c0,0-0.69,0.18-0.69,0.18c-0.11,0.02-0.18-0.05-0.18-0.3
						V201c0-0.21,0.08-0.27,0.18-0.3l1.82-0.48c0.04-0.01,0.07-0.02,0.1-0.02c0.1,0,0.16,0.07,0.16,0.34v10.6
						c0,0.34-0.08,0.54-0.19,0.54h-0.91C196.52,211.68,196.45,211.48,196.45,211.14z"/>
					<path class="st5" d="M199.65,205.88c0-4.81,1.21-5.81,2.63-5.81c1.43,0,2.64,0.97,2.64,5.81c0,4.71-1.21,5.91-2.64,5.91
						C200.86,211.79,199.65,210.58,199.65,205.88z M203.7,205.88c0-3.47-0.39-4.78-1.41-4.78c-1.02,0-1.41,1.32-1.41,4.78
						c0,3.56,0.42,4.89,1.41,4.89C203.29,210.76,203.7,209.46,203.7,205.88z"/>
					<path class="st5" d="M206.52,205.88c0-4.81,1.21-5.81,2.63-5.81c1.43,0,2.65,0.97,2.65,5.81c0,4.71-1.21,5.91-2.65,5.91
						C207.73,211.79,206.52,210.58,206.52,205.88z M210.56,205.88c0-3.47-0.39-4.78-1.41-4.78c-1.02,0-1.41,1.32-1.41,4.78
						c0,3.56,0.42,4.89,1.41,4.89C210.16,210.76,210.56,209.46,210.56,205.88z"/>
					<path class="st5" d="M214.18,211.14v-9.19c0-0.16-0.05-0.23-0.11-0.22c0,0-0.69,0.18-0.7,0.18c-0.11,0.02-0.18-0.05-0.18-0.3
						V201c0-0.21,0.08-0.27,0.18-0.3l1.82-0.48c0.04-0.01,0.07-0.02,0.1-0.02c0.1,0,0.16,0.07,0.16,0.34v10.6
						c0,0.34-0.08,0.54-0.19,0.54h-0.91C214.25,211.68,214.18,211.48,214.18,211.14z"/>
					<path class="st5" d="M217.38,205.88c0-4.81,1.21-5.81,2.63-5.81c1.43,0,2.65,0.97,2.65,5.81c0,4.71-1.21,5.91-2.65,5.91
						C218.59,211.79,217.38,210.58,217.38,205.88z M221.42,205.88c0-3.47-0.39-4.78-1.41-4.78c-1.02,0-1.41,1.32-1.41,4.78
						c0,3.56,0.42,4.89,1.41,4.89C221.01,210.76,221.42,209.46,221.42,205.88z"/>
					<path class="st5" d="M225.03,211.14v-9.19c0-0.16-0.05-0.23-0.11-0.22c0,0-0.69,0.18-0.7,0.18c-0.11,0.02-0.18-0.05-0.18-0.3
						V201c0-0.21,0.08-0.27,0.18-0.3l1.82-0.48c0.04-0.01,0.07-0.02,0.1-0.02c0.1,0,0.16,0.07,0.16,0.34v10.6
						c0,0.34-0.08,0.54-0.19,0.54h-0.91C225.1,211.68,225.03,211.48,225.03,211.14z"/>
					<path class="st5" d="M228.24,205.88c0-4.81,1.21-5.81,2.63-5.81c1.43,0,2.64,0.97,2.64,5.81c0,4.71-1.21,5.91-2.64,5.91
						C229.44,211.79,228.24,210.58,228.24,205.88z M232.28,205.88c0-3.47-0.39-4.78-1.41-4.78c-1.02,0-1.41,1.32-1.41,4.78
						c0,3.56,0.42,4.89,1.41,4.89C231.87,210.76,232.28,209.46,232.28,205.88z"/>
					<path class="st5" d="M235.89,211.14v-9.19c0-0.16-0.05-0.23-0.11-0.22c0,0-0.69,0.18-0.7,0.18c-0.11,0.02-0.18-0.05-0.18-0.3
						V201c0-0.21,0.08-0.27,0.18-0.3l1.82-0.48c0.04-0.01,0.07-0.02,0.1-0.02c0.1,0,0.16,0.07,0.16,0.34v10.6
						c0,0.34-0.08,0.54-0.19,0.54h-0.91C235.96,211.68,235.89,211.48,235.89,211.14z"/>
					<path class="st5" d="M239.09,205.88c0-4.81,1.21-5.81,2.63-5.81c1.43,0,2.64,0.97,2.64,5.81c0,4.71-1.21,5.91-2.64,5.91
						C240.3,211.79,239.09,210.58,239.09,205.88z M243.13,205.88c0-3.47-0.39-4.78-1.41-4.78c-1.02,0-1.41,1.32-1.41,4.78
						c0,3.56,0.42,4.89,1.41,4.89C242.73,210.76,243.13,209.46,243.13,205.88z"/>
				</g>
				<g>
					<path class="st5" d="M195.67,220.99c0-4.81,1.21-5.81,2.63-5.81c1.43,0,2.64,0.98,2.64,5.81c0,4.7-1.21,5.91-2.64,5.91
						C196.88,226.9,195.67,225.69,195.67,220.99z M199.71,220.99c0-3.47-0.39-4.78-1.41-4.78c-1.02,0-1.41,1.32-1.41,4.78
						c0,3.56,0.42,4.89,1.41,4.89C199.3,225.88,199.71,224.58,199.71,220.99z"/>
					<path class="st5" d="M203.32,226.25v-9.19c0-0.16-0.05-0.23-0.11-0.22c0,0-0.68,0.18-0.69,0.18c-0.11,0.02-0.18-0.05-0.18-0.3
						v-0.61c0-0.21,0.08-0.27,0.18-0.3l1.82-0.48c0.04-0.01,0.07-0.02,0.1-0.02c0.1,0,0.16,0.07,0.16,0.33v10.6
						c0,0.34-0.08,0.53-0.19,0.53h-0.91C203.39,226.79,203.32,226.6,203.32,226.25z"/>
					<path class="st5" d="M207.31,226.25v-9.19c0-0.16-0.05-0.23-0.11-0.22c0,0-0.69,0.18-0.7,0.18c-0.11,0.02-0.18-0.05-0.18-0.3
						v-0.61c0-0.21,0.08-0.27,0.18-0.3l1.82-0.48c0.04-0.01,0.07-0.02,0.1-0.02c0.1,0,0.16,0.07,0.16,0.33v10.6
						c0,0.34-0.08,0.53-0.19,0.53h-0.91C207.38,226.79,207.31,226.6,207.31,226.25z"/>
					<path class="st5" d="M210.51,220.99c0-4.81,1.21-5.81,2.63-5.81c1.43,0,2.64,0.98,2.64,5.81c0,4.7-1.21,5.91-2.64,5.91
						C211.72,226.9,210.51,225.69,210.51,220.99z M214.55,220.99c0-3.47-0.39-4.78-1.41-4.78c-1.02,0-1.41,1.32-1.41,4.78
						c0,3.56,0.42,4.89,1.41,4.89C214.14,225.88,214.55,224.58,214.55,220.99z"/>
					<path class="st5" d="M218.16,226.25v-9.19c0-0.16-0.05-0.23-0.11-0.22c0,0-0.69,0.18-0.7,0.18c-0.11,0.02-0.18-0.05-0.18-0.3
						v-0.61c0-0.21,0.08-0.27,0.18-0.3l1.82-0.48c0.04-0.01,0.07-0.02,0.1-0.02c0.1,0,0.16,0.07,0.16,0.33v10.6
						c0,0.34-0.08,0.53-0.19,0.53h-0.91C218.23,226.79,218.16,226.6,218.16,226.25z"/>
					<path class="st5" d="M221.37,220.99c0-4.81,1.21-5.81,2.63-5.81c1.43,0,2.64,0.98,2.64,5.81c0,4.7-1.21,5.91-2.64,5.91
						C222.57,226.9,221.37,225.69,221.37,220.99z M225.41,220.99c0-3.47-0.39-4.78-1.41-4.78c-1.02,0-1.41,1.32-1.41,4.78
						c0,3.56,0.42,4.89,1.41,4.89C225,225.88,225.41,224.58,225.41,220.99z"/>
					<path class="st5" d="M229.02,226.25v-9.19c0-0.16-0.05-0.23-0.11-0.22c0,0-0.69,0.18-0.7,0.18c-0.11,0.02-0.18-0.05-0.18-0.3
						v-0.61c0-0.21,0.08-0.27,0.18-0.3l1.82-0.48c0.04-0.01,0.07-0.02,0.1-0.02c0.1,0,0.16,0.07,0.16,0.33v10.6
						c0,0.34-0.08,0.53-0.19,0.53h-0.91C229.09,226.79,229.02,226.6,229.02,226.25z"/>
					<path class="st5" d="M232.22,220.99c0-4.81,1.21-5.81,2.63-5.81c1.43,0,2.64,0.98,2.64,5.81c0,4.7-1.21,5.91-2.64,5.91
						C233.43,226.9,232.22,225.69,232.22,220.99z M236.26,220.99c0-3.47-0.39-4.78-1.41-4.78c-1.02,0-1.41,1.32-1.41,4.78
						c0,3.56,0.42,4.89,1.41,4.89C235.86,225.88,236.26,224.58,236.26,220.99z"/>
					<path class="st5" d="M239.09,220.99c0-4.81,1.21-5.81,2.63-5.81c1.43,0,2.64,0.98,2.64,5.81c0,4.7-1.21,5.91-2.64,5.91
						C240.3,226.9,239.09,225.69,239.09,220.99z M243.13,220.99c0-3.47-0.39-4.78-1.41-4.78c-1.02,0-1.41,1.32-1.41,4.78
						c0,3.56,0.42,4.89,1.41,4.89C242.73,225.88,243.13,224.58,243.13,220.99z"/>
				</g>
			</g>
			<g>
				<rect x="271.69" y="256.1" class="st5" width="6" height="34.69"/>
				<rect x="279.84" y="259.78" class="st5" width="6" height="31.01"/>
				<rect x="287.99" y="269.46" class="st5" width="6" height="21.33"/>
			</g>
			<g>
				<rect x="286.81" y="297.79" class="st5" width="8.01" height="1.82"/>
				<rect x="276.19" y="297.79" class="st5" width="8.8" height="1.82"/>
				<rect x="270.85" y="297.79" class="st5" width="3.52" height="1.82"/>
				<rect x="282.78" y="301.88" class="st5" width="12.04" height="1.82"/>
				<rect x="270.85" y="301.88" class="st5" width="10.11" height="1.82"/>
				<rect x="288.12" y="305.97" class="st5" width="6.7" height="1.82"/>
				<rect x="275.57" y="305.97" class="st5" width="10.74" height="1.82"/>
				<rect x="270.85" y="305.97" class="st5" width="2.9" height="1.82"/>
			</g>
		</g>
		<g>
			<path class="st5" d="M520.39,283.46v-19.85c6.58,0,12.19,2.86,16.06,8.18L520.39,283.46z"/>
			<g>
				<rect x="541.71" y="225.86" class="st5" width="4.48" height="25.93"/>
				<rect x="547.81" y="228.61" class="st5" width="4.49" height="23.18"/>
				<rect x="553.9" y="235.84" class="st5" width="4.48" height="15.95"/>
				<rect x="559.99" y="231.26" class="st5" width="4.48" height="20.53"/>
			</g>
			<path class="st5" d="M508,291.09h-41.6c-0.91,0-1.66,0.75-1.66,1.66v17.5c0,0.91,0.75,1.66,1.66,1.66H508
				c0.91,0,1.66-0.75,1.66-1.66v-17.5C509.65,291.84,508.91,291.09,508,291.09z M492.85,294.43h5.73v1.66h-5.73V294.43z
				 M488.7,300.25v-1.66h6.49v1.66H488.7z M493.67,302.75v1.66h-2.62v-1.66H493.67z M475.93,294.43h15.26v1.66h-15.26V294.43z
				 M487.05,298.59v1.66h-7.73v-1.66H487.05z M468.26,294.43h6.02v1.66h-6.02V294.43z M468.26,298.59h9.4v1.66h-9.4V298.59z
				 M468.26,302.75h3.81v1.66h-3.81V302.75z M472.14,308.57h-3.88v-1.66h3.88V308.57z M473.72,302.75h15.67v1.66h-15.67V302.75z
				 M482.01,308.57h-8.21v-1.66h8.21V308.57z M497.74,308.57h-14.08v-1.66h14.08V308.57z M506.13,308.57h-6.73v-1.66h6.73V308.57z
				 M506.13,304.41h-10.8v-1.66h10.8V304.41z M506.13,300.25h-9.28v-1.66h9.28V300.25z M506.13,296.08h-5.9v-1.66h5.9V296.08z"/>
			<g>
				<path class="st5" d="M537.27,273.05l-16,11.62l-2.39,1.74v-2.96v-19.8c-3.75,0.25-7.03,1.46-10.16,3.74
					c-7.13,5.19-9.79,14.23-7.21,22.19H508c1.74,0,3.16,1.42,3.16,3.16v8.26c0.17,0.09,0.33,0.19,0.5,0.27
					c0.64,0.31,1.29,0.6,1.96,0.84c0.07,0.02,0.15,0.04,0.22,0.07c0.6,0.21,1.21,0.39,1.82,0.54c0.23,0.06,0.46,0.1,0.69,0.14
					c0.47,0.1,0.94,0.18,1.41,0.25c0.26,0.03,0.52,0.06,0.78,0.09c0.46,0.04,0.92,0.07,1.38,0.08c0.29,0.01,0.59,0.02,0.88,0.01
					c0.2,0,0.4-0.01,0.59-0.02c0.41-0.02,0.81-0.06,1.22-0.1c0.18-0.02,0.37-0.04,0.55-0.06c0.52-0.07,1.04-0.17,1.56-0.28
					c0.06-0.01,0.12-0.02,0.18-0.04c0.57-0.13,1.14-0.3,1.7-0.48c0.17-0.06,0.33-0.12,0.5-0.18c0.4-0.14,0.8-0.3,1.19-0.47
					c0.19-0.08,0.38-0.17,0.57-0.26c0.38-0.18,0.76-0.38,1.13-0.59c0.17-0.09,0.33-0.18,0.5-0.28c0.53-0.31,1.05-0.65,1.56-1.01
					C540.51,293.37,542.67,281.8,537.27,273.05z"/>
			</g>
			<g>
				<path class="st5" d="M553.12,280.3c2.32-0.53,4.92-1.24,6.97-1.85c-0.32-2.09-0.5-4.22-2.21-8.94
					c-2.05,0.39-4.64,0.97-7.02,1.59c-1.11-2.78-2.04-4.13-2.93-5.58c1.72-1.5,3.55-3.16,5.3-4.89c-3.72-5.01-6.11-6.87-6.11-6.87
					c-1.64,1.31-3.88,3.2-5.49,4.67c-2.23-1.93-3.62-2.62-5.18-3.59c0.57-1.46,1.47-3.79,2.43-6.79c-5.8-2.79-8.61-3.25-8.61-3.25
					c-0.82,1.88-1.84,4.4-2.68,6.68c-2.22-0.54-3.98-0.65-6.26-0.75c-0.38-3.47-0.77-5.71-1.01-7.17c-2.04,0.1-4.93,0.1-9.12,1.13
					c0.15,2.08,0.39,4.64,0.73,7.18c-2.15,0.58-4.03,1.33-5.9,2.24c-1.29-1.91-2.71-3.9-4.23-5.87c-3.08,1.64-6.41,4.14-7.55,5.25
					c1.23,1.99,2.81,4.36,3.99,6.02c-1.54,1.36-3.03,3.16-4.19,4.72c-2.15-1.16-4.55-2.36-6.47-3.25c-0.76,0.85-3.45,5.79-4.26,8.16
					c1.77,1.05,4.11,2.35,6.32,3.48c-0.93,2.58-1.26,4.67-1.5,6.12c-2.11-0.01-4.45,0.01-7.23,0.15c-0.27,1.53-0.35,7.22,0,9.19
					c1.99,0.1,4.88,0.17,7.23,0.14c0.07,0.44,0.14,0.9,0.22,1.39h5.86c-4.11-19.05,10.79-35.87,31.62-32.77
					c4.34,1.1,5.47,1.47,9.65,3.97c0.31,0.17,0.46,0.31,0.46,0.32c4.88,3.65,6.28,5.82,8.36,9.24c0.2,0.3,0.26,0.5,0.26,0.5
					c5.96,12.33,2.35,24.58-3.74,30.6c-1.52,1.82-3.43,3.27-4.89,4.36c0,0.1-3.77,2.39-5.8,3.03c-5.76,2.39-12.67,2.32-18.99-0.08
					v1.51c0,1.74-1.42,3.16-3.16,3.16h-0.65c1.72,0.76,3.28,1.3,4.58,1.63c-0.33,2.52-0.58,5.07-0.72,7.18
					c4.45,1.07,7.49,1.05,9.12,1.13c0.24-1.46,0.63-3.72,1.01-7.17c2.16-0.09,4.12-0.23,6.26-0.75c0.88,2.39,1.87,4.82,2.69,6.68
					c0,0,2.86-0.46,8.61-3.25c-0.87-2.69-1.71-4.94-2.43-6.79c1.78-1.09,2.92-1.66,5.18-3.59c1.44,1.31,3.6,3.17,5.49,4.67
					c3.02-2.59,5.01-5.41,6.11-6.87c-1.49-1.47-3.52-3.36-5.3-4.89c1.25-2.04,1.95-3.13,2.93-5.59c3.77,0.97,7.02,1.59,7.02,1.59
					c1.06-2.92,1.31-3.13,2.21-8.94c-2.08-0.62-4.75-1.34-6.97-1.85C553.37,284,553.3,282.13,553.12,280.3z"/>
				<path class="st5" d="M494.26,313.42c0,0.01-0.01,0.02-0.01,0.02c0,0.01,0.42,0.4,1.08,0.95c1.5,1.13,3.8,2.92,6.47,4.3
					c0,0,1.65-2.14,3.81-5.27H494.26z"/>
			</g>
		</g>
		<g>
			<g>
				<path class="st6" d="M485.45,310.81c0,3.27-2.65,5.92-5.92,5.92H275.17c-3.27,0-5.92-2.65-5.92-5.92V178.02
					c0-3.27,2.65-5.92,5.92-5.92h204.37c3.27,0,5.92,2.65,5.92,5.92V310.81z"/>
			</g>
			<g>
				<rect x="276.84" y="179.69" class="st8" width="201.02" height="126.49"/>
			</g>
			<g>
				<rect x="276.84" y="179.69" class="st14" width="201.02" height="7.6"/>
			</g>
			<g>
				<rect x="276.84" y="301.61" class="st14" width="201.02" height="4.57"/>
			</g>
			<rect x="276.84" y="187.29" class="st15" width="201.01" height="8.7"/>
			<g>
				<polygon class="st13" points="455.79,292.6 293.55,292.6 293.55,212.42 296,212.42 296,290.14 455.79,290.14 				"/>
				<g>
					<path class="st13" d="M463.21,291.37c-3.49-1.29-7.82-3.5-10.5-5.84l2.11,5.84l-2.11,5.84
						C455.39,294.87,459.72,292.66,463.21,291.37z"/>
				</g>
				<g>
					<path class="st13" d="M294.77,205c1.29,3.49,3.5,7.82,5.84,10.5l-5.84-2.11l-5.84,2.11C291.27,212.82,293.48,208.49,294.77,205
						z"/>
				</g>
			</g>
			<g class="st22">
				<polygon class="st8" points="350.7,179.68 276.84,253.5 276.84,212.59 309.76,179.68 				"/>
			</g>
			<g class="st22">
				<polygon class="st8" points="477.85,224.82 477.85,277.79 449.47,306.18 396.49,306.18 				"/>
			</g>
			<polygon class="st13" points="447.83,271.92 423.92,229.47 390.92,268.27 352.38,233.57 308.98,258.77 307.34,255.93 
				352.8,229.54 390.61,263.58 422.41,226.19 422.41,220.11 450.69,270.32 			"/>
			<path class="st14" d="M314.1,257.35c0,3.28-2.66,5.94-5.94,5.94c-3.28,0-5.94-2.66-5.94-5.94c0-3.28,2.66-5.94,5.94-5.94
				C311.44,251.41,314.1,254.07,314.1,257.35z"/>
			<path class="st14" d="M358.53,231.55c0,3.28-2.66,5.94-5.94,5.94c-3.28,0-5.94-2.66-5.94-5.94c0-3.28,2.66-5.94,5.94-5.94
				C355.87,225.61,358.53,228.27,358.53,231.55z"/>
			<path class="st14" d="M396.71,265.18c0,3.28-2.66,5.94-5.94,5.94c-3.28,0-5.94-2.66-5.94-5.94c0-3.28,2.66-5.94,5.94-5.94
				C394.05,259.25,396.71,261.91,396.71,265.18z"/>
			<path class="st14" d="M429.99,226.79c0,3.28-2.66,5.94-5.94,5.94c-3.28,0-5.94-2.66-5.94-5.94c0-3.28,2.66-5.94,5.94-5.94
				C427.33,220.85,429.99,223.51,429.99,226.79z"/>
			<path class="st14" d="M455.2,271.12c0,3.28-2.66,5.94-5.94,5.94c-3.28,0-5.94-2.66-5.94-5.94c0-3.28,2.66-5.94,5.94-5.94
				C452.54,265.18,455.2,267.84,455.2,271.12z"/>
			<g>
				<rect x="392.68" y="205.21" class="st13" width="14.43" height="3.28"/>
				<rect x="373.54" y="205.21" class="st13" width="15.87" height="3.28"/>
				<rect x="363.92" y="205.21" class="st13" width="6.35" height="3.28"/>
				<rect x="385.42" y="212.58" class="st13" width="21.7" height="3.28"/>
				<rect x="363.92" y="212.58" class="st13" width="18.22" height="3.28"/>
				<rect x="395.04" y="219.95" class="st13" width="12.08" height="3.28"/>
				<rect x="372.41" y="219.95" class="st13" width="19.35" height="3.28"/>
				<rect x="363.92" y="219.95" class="st13" width="5.22" height="3.28"/>
			</g>
			<g>
				<rect x="337.27" y="251.01" class="st10" width="5.7" height="32.96"/>
				<rect x="345.01" y="254.5" class="st9" width="5.7" height="29.46"/>
				<rect x="352.76" y="263.7" class="st11" width="5.7" height="20.27"/>
				<rect x="360.5" y="257.87" class="st12" width="5.7" height="26.1"/>
			</g>
			<g>
				<polygon class="st23" points="501.53,318.51 456.11,273.1 460.56,268.66 505.96,314.07 				"/>
				<path class="st23" d="M436.37,285c-6.34,0-12.58-1.67-18.04-4.83c-5.48-3.17-10.05-7.73-13.21-13.21
					c-3.16-5.47-4.83-11.71-4.83-18.04c0-6.34,1.67-12.58,4.83-18.05c3.17-5.47,7.73-10.04,13.21-13.2c10.93-6.33,25.16-6.32,36.1,0
					c5.48,3.17,10.04,7.74,13.2,13.2c3.17,5.47,4.84,11.71,4.84,18.05c0,6.34-1.67,12.58-4.84,18.04
					c-3.16,5.46-7.73,10.03-13.19,13.21C448.96,283.33,442.72,285,436.37,285z M436.37,220.15c-5.05,0-10.03,1.33-14.38,3.85
					c-4.36,2.52-8.01,6.17-10.53,10.53c-2.51,4.35-3.84,9.32-3.84,14.38c0,5.06,1.33,10.03,3.84,14.38
					c2.52,4.36,6.17,8.01,10.54,10.53c8.69,5.03,20.06,5.04,28.76,0c4.36-2.52,8-6.17,10.53-10.53c2.52-4.35,3.86-9.32,3.86-14.38
					c0-5.06-1.34-10.03-3.85-14.38c-2.53-4.37-6.17-8.01-10.53-10.54C446.4,221.48,441.43,220.15,436.37,220.15z"/>
				<path class="st14" d="M507.01,321.04c-1.63,1.63-4.28,1.63-5.92,0l-34.83-34.83c-0.39-0.39-0.61-0.92-0.61-1.48
					c0-0.55,0.22-1.09,0.61-1.48l4.44-4.44c0.82-0.82,2.14-0.82,2.96,0l34.82,34.82c0.79,0.79,1.23,1.85,1.23,2.96
					c0,1.11-0.44,2.17-1.23,2.96L507.01,321.04z"/>
				<path class="st24" d="M465.57,248.92c0,5.32-1.42,10.3-3.9,14.6c-2.56,4.43-6.26,8.12-10.69,10.68
					c-4.3,2.48-9.28,3.91-14.6,3.91c-5.31,0-10.31-1.43-14.6-3.91c-4.43-2.56-8.12-6.26-10.68-10.68c-2.48-4.3-3.91-9.29-3.91-14.6
					c0-5.32,1.43-10.31,3.91-14.6c2.56-4.43,6.26-8.13,10.68-10.69c4.29-2.48,9.29-3.91,14.6-3.91c5.32,0,10.31,1.43,14.6,3.91
					c4.43,2.57,8.13,6.26,10.69,10.69C464.15,238.61,465.57,243.6,465.57,248.92z"/>
				<path class="st25" d="M473.67,278.81c-0.82-0.82-2.14-0.82-2.95,0l-2.07,2.06l39.26,39.27l0.59-0.59
					c0.78-0.78,1.23-1.85,1.23-2.95c0-1.12-0.45-2.17-1.23-2.96L473.67,278.81z"/>
			</g>
			<path class="st6" d="M493.17,329.97c0,2.7-2.21,4.91-4.91,4.91H266.44c-2.7,0-4.91-2.21-4.91-4.91v-4.91
				c0-2.7,2.21-4.91,4.91-4.91h221.82c2.7,0,4.91,2.21,4.91,4.91V329.97z"/>
			<rect x="271.16" y="324.19" class="st23" width="47.23" height="6.66"/>
			<path class="st10" d="M485.45,327.52c0,1.46-1.19,2.65-2.65,2.65c-1.46,0-2.65-1.19-2.65-2.65c0-1.46,1.19-2.65,2.65-2.65
				C484.27,324.87,485.45,326.05,485.45,327.52z"/>
			<path class="st12" d="M474.49,327.52c0,1.46-1.19,2.65-2.65,2.65c-1.46,0-2.65-1.19-2.65-2.65c0-1.46,1.19-2.65,2.65-2.65
				C473.3,324.87,474.49,326.05,474.49,327.52z"/>
		</g>
		<g>
			<path class="st8" d="M255.08,387.9h-2.42c2.54-12.6,2.83-14.56,5.37-27.18h3.13l5.37,27.18h-2.43l-1.36-7.07h-6.27L255.08,387.9z
				 M256.75,379.23h5.68l-2.86-16.01L256.75,379.23z"/>
			<path class="st8" d="M269.63,387.9v-27.18h1.85l8.61,21.52v-21.52h2.04v27.18h-1.8l-8.62-21.07v21.07H269.63z"/>
			<path class="st8" d="M287.65,387.9h-2.42c2.54-12.6,2.83-14.56,5.37-27.18h3.13l5.37,27.18h-2.43l-1.36-7.07h-6.27L287.65,387.9z
				 M289.33,379.23h5.68l-2.86-16.01L289.33,379.23z"/>
			<path class="st8" d="M302.21,387.9v-27.18h2.4v25.25h7.6v1.93H302.21z"/>
			<path class="st8" d="M317.23,387.9v-8.43l-5.94-18.74h2.67l4.45,16.3c1.93-7.04,2.49-9.25,4.45-16.3h2.51l-5.75,18.74v8.43
				H317.23z"/>
			<path class="st8" d="M330.08,387.9v-25.25h-5.29v-1.93h13.03v1.93h-5.34v25.25H330.08z"/>
			<path class="st8" d="M339.56,387.9v-27.18h2.4v27.18H339.56z"/>
			<path class="st8" d="M346.16,380.02v-11.39c0-4.6,1.63-8.29,6.9-8.29c4.9,0,6.38,3.7,6.38,8.29v1.11h-2.29v-1.64
				c0-3.32-0.93-5.83-4.09-5.83c-3.54,0-4.5,2.51-4.5,5.83v12.46c0,3.32,0.96,5.84,4.5,5.84c3.16,0,4.09-2.53,4.09-5.84v-1.86h2.29
				v1.33c0,4.56-1.36,8.31-6.38,8.31C347.66,388.33,346.16,384.59,346.16,380.02z"/>
			<path class="st8" d="M364.46,387.9h-2.42c2.54-12.6,2.83-14.56,5.37-27.18h3.13l5.37,27.18h-2.43l-1.36-7.07h-6.27L364.46,387.9z
				 M366.13,379.23h5.68l-2.86-16.01L366.13,379.23z"/>
			<path class="st8" d="M379.02,387.9v-27.18h2.4v25.25h7.6v1.93H379.02z"/>
			<path class="st8" d="M396.66,387.9v-27.18h7.25c4.72,0,5.83,3.25,5.83,7.03c0,2.78-0.81,5.5-3.79,6.58l4.2,13.56h-2.56
				l-3.96-13.26h-4.56v13.26H396.66z M399.06,372.71h4.83c2.87,0,3.44-2.49,3.44-5.04c0-2.7-0.63-5.02-3.44-5.02h-4.83V372.71z"/>
			<path class="st8" d="M413.54,387.9v-27.18h9.47v1.93h-7.07v10.3h5.05v1.82h-5.05v11.21h7.07v1.93H413.54z"/>
			<path class="st8" d="M425.25,381.35l2.12-0.62c0.33,2.86,1.63,5.67,4.85,5.67c2.48,0,3.87-1.44,3.87-3.93
				c0-2.31-1.67-4.28-3.65-6.36l-4.25-4.47c-1.59-1.69-2.87-3.4-2.87-5.43c0-3.6,2.64-5.86,6.25-5.86c3.58,0,5.75,2.08,6.46,5.89
				l0.05,0.25l-2.02,0.63l-0.03-0.22c-0.39-2.54-1.86-4.63-4.45-4.63c-2.31,0-3.93,1.17-3.93,3.62c0,1.53,0.92,2.91,2.23,4.33
				l4,4.34c2.13,2.34,4.52,4.58,4.52,7.71c0,4.01-2.78,6.06-6.43,6.06C427.97,388.33,425.82,385.09,425.25,381.35z"/>
			<path class="st8" d="M441.87,387.9v-27.18h9.47v1.93h-7.07v10.3h5.05v1.82h-5.05v11.21h7.07v1.93H441.87z"/>
			<path class="st8" d="M455.53,387.9h-2.42c2.54-12.6,2.83-14.56,5.37-27.18h3.13l5.37,27.18h-2.43l-1.36-7.07h-6.27L455.53,387.9z
				 M457.2,379.23h5.68l-2.86-16.01L457.2,379.23z"/>
			<path class="st8" d="M470.08,387.9v-27.18h7.25c4.72,0,5.83,3.25,5.83,7.03c0,2.78-0.81,5.5-3.79,6.58l4.2,13.56h-2.56
				l-3.96-13.26h-4.56v13.26H470.08z M472.48,372.71h4.83c2.87,0,3.44-2.49,3.44-5.04c0-2.7-0.63-5.02-3.44-5.02h-4.83V372.71z"/>
			<path class="st8" d="M486.54,380.02v-11.39c0-4.6,1.63-8.29,6.9-8.29c4.9,0,6.38,3.7,6.38,8.29v1.11h-2.29v-1.64
				c0-3.32-0.93-5.83-4.09-5.83c-3.54,0-4.5,2.51-4.5,5.83v12.46c0,3.32,0.96,5.84,4.5,5.84c3.16,0,4.09-2.53,4.09-5.84v-1.86h2.29
				v1.33c0,4.56-1.36,8.31-6.38,8.31C488.04,388.33,486.54,384.59,486.54,380.02z"/>
			<path class="st8" d="M503.92,387.9v-27.18h2.4v12.3h8.37v-12.3h2.4v27.18h-2.4v-13.2h-8.37v13.2H503.92z"/>
		</g>
	</g>
</g>
<g id="shadow_1_">
</g>
<g id="objects">
</g>
</svg>
